<svg width="2228" height="1099" viewBox="0 0 2228 1099" fill="none" xmlns="http://www.w3.org/2000/svg">
<style>
    @keyframes bounce {
      0%, 100% {
        transform: translateY(0);
      }
      50% {
        transform: translateY(-10px);
      }
    }

    @keyframes bounce-inverse {
      0%, 100% {
        transform: translateY(-10px);
      }
      50% {
        transform: translateY(0px);
      }
    }

    .bouncing {
      animation: bounce 2s ease infinite;
      transform-origin: center bottom;
    }
    .bouncing-inverse {
      animation:  bounce-inverse 2s ease infinite;
      transform-origin: center bottom;
    }
  </style>
<rect width="2228" height="950" fill="url(#paint0_linear_92_22)"/>
<rect y="926" width="2228" height="173" fill="url(#paint1_linear_92_22)"/>
<g class="bouncing"> 
<path d="M729.886 562.244C729.886 570.239 727.832 582.15 723.758 597.485C719.736 612.624 713.945 630.387 706.918 649.799C692.867 688.613 674.082 733.461 655.225 776.107C636.382 818.722 617.53 858.997 603.384 888.627C598.067 899.763 593.418 909.391 589.685 917.07C585.953 909.391 581.304 899.763 575.987 888.627C561.841 858.997 542.989 818.722 524.145 776.107C505.289 733.461 486.504 688.613 472.453 649.799C465.426 630.387 459.635 612.624 455.613 597.485C451.539 582.15 449.485 570.239 449.485 562.244C449.485 493.568 511.219 436.109 589.685 436.109C668.151 436.109 729.886 493.568 729.886 562.244Z" stroke="#0084FF" stroke-width="22"/>
<path d="M463.355 606.457C467.329 606.635 471.3 606.16 475.049 605.407C481.432 604.125 488.266 601.803 495.139 599.141C500.893 596.913 507.036 594.301 513.265 591.653C514.494 591.13 515.727 590.606 516.961 590.083C524.541 586.871 532.315 583.637 540.264 580.735C556.255 574.898 572.252 570.681 587.527 570.681C602.831 570.681 619.22 574.911 635.828 580.774C644.079 583.687 652.192 586.931 660.136 590.15C661.097 590.539 662.057 590.929 663.015 591.318C669.894 594.111 676.69 596.87 683.072 599.211C690.325 601.871 697.503 604.168 704.195 605.431C708.561 606.256 713.147 606.726 717.67 606.378C700.783 659.973 650.292 698.952 590.5 698.952C530.737 698.952 480.267 660.011 463.355 606.457Z" fill="#0084FF" stroke="#0084FF" stroke-width="22"/>
<path d="M734.695 502.354C734.695 483.588 730.965 465.005 723.719 447.667C716.472 430.329 705.851 414.575 692.461 401.305C679.071 388.035 663.176 377.509 645.681 370.327C628.187 363.146 609.436 359.449 590.5 359.449C571.564 359.449 552.814 363.146 535.319 370.327C517.825 377.509 501.929 388.035 488.539 401.305C475.149 414.575 464.528 430.329 457.282 447.667C450.035 465.005 446.305 483.588 446.305 502.354L734.695 502.354Z" fill="#0084FF"/>
<path d="M416 470.489H765V503.319H416V470.489Z" fill="#0084FF"/>
<path d="M565.572 344H612.496V371.036H565.572V344Z" fill="#0084FF"/>
</g>
<g class="bouncing-inverse">
<path d="M644.146 1090C613.652 1023.25 590.015 977.329 590.015 977.329C590.015 977.329 565.137 1023.81 534.876 1090" stroke="url(#paint2_linear_92_22)" stroke-width="22"/>
</g>
<path d="M1794.78 878.892C1794.78 875.173 1797.79 872.157 1801.51 872.157C1805.23 872.157 1808.25 875.173 1808.25 878.892V926.038H1794.78V878.892Z" fill="#0084FF"/>
<path d="M1794.24 703.432C1798.09 696.765 1807.71 696.765 1811.56 703.432L1828.59 732.93C1833.3 741.094 1825.13 750.649 1816.34 747.262L1806.49 743.472C1804.18 742.582 1801.62 742.582 1799.31 743.472L1789.46 747.262C1780.66 750.649 1772.49 741.094 1777.21 732.93L1794.24 703.432Z" fill="#0084FF"/>
<path d="M1796.02 703.717C1799.8 696.856 1809.64 696.811 1813.49 703.638L1828.83 730.89C1834.08 740.208 1823.01 750.15 1814.31 743.935L1812.92 742.944C1810.2 741.001 1806.69 740.545 1803.57 741.73L1792.96 745.748C1784.26 749.044 1776.17 739.716 1780.66 731.569L1796.02 703.717Z" fill="#005BAF"/>
<path d="M1794.38 732.921C1798.29 726.579 1807.51 726.58 1811.41 732.921L1843.09 784.359C1847.8 792.003 1840.83 801.497 1832.13 799.299L1805.35 792.534C1803.74 792.128 1802.06 792.128 1800.45 792.534L1773.67 799.299C1764.97 801.497 1758 792.003 1762.71 784.359L1794.38 732.921Z" fill="#0084FF"/>
<path d="M1795.3 732.313C1799.1 725.649 1808.68 725.565 1812.59 732.162L1844.05 785.189C1848.73 793.077 1841.21 802.578 1832.46 799.833L1811.83 793.363C1810.26 792.868 1808.58 792.772 1806.96 793.083L1776.32 798.947C1767.93 800.551 1761.52 791.59 1765.75 784.174L1795.3 732.313Z" fill="#005BAF"/>
<path d="M1790.4 764.755C1794.25 758.088 1803.88 758.088 1807.73 764.755L1848.94 836.139C1853.54 844.111 1845.84 853.541 1837.11 850.623L1802.24 838.966C1800.18 838.279 1797.95 838.279 1795.89 838.966L1761.02 850.623C1752.29 853.541 1744.59 844.111 1749.19 836.139L1790.4 764.755Z" fill="#0084FF"/>
<path d="M1789.82 764.163C1793.45 757.171 1803.37 756.937 1807.33 763.751L1849.69 836.601C1854.32 844.568 1846.62 854.028 1837.88 851.114L1807.91 841.125C1806.64 840.698 1805.28 840.535 1803.94 840.645L1765.69 843.761C1757.85 844.4 1752.38 836.158 1756.01 829.18L1789.82 764.163Z" fill="#005BAF"/>
<path d="M1791.97 829.652C1795.64 822.233 1806.22 822.233 1809.9 829.652L1830.7 871.692C1834.56 879.484 1827.32 888.146 1818.96 885.735L1803.71 881.331C1801.9 880.807 1799.97 880.807 1798.16 881.331L1782.9 885.735C1774.55 888.146 1767.31 879.484 1771.17 871.692L1791.97 829.652Z" fill="#0084FF"/>
<path d="M1791.97 829.59C1795.29 821.764 1806.24 821.389 1810.09 828.97L1831.99 872.118C1836.06 880.117 1828.34 889.004 1819.85 886.111L1809.54 882.597C1808.33 882.184 1807.05 882.008 1805.77 882.078L1784.85 883.226C1777.46 883.632 1772.21 876.147 1775.1 869.334L1791.97 829.59Z" fill="#005BAF"/>
<path d="M1717.87 891.184C1717.87 888.47 1720.07 886.271 1722.79 886.271C1725.5 886.271 1727.7 888.47 1727.7 891.184V925.572H1717.87V891.184Z" fill="#0084FF"/>
<path d="M1715.14 767.26C1718.98 760.594 1728.61 760.594 1732.46 767.26L1739.15 778.851C1743.71 786.762 1735.8 796.019 1727.28 792.738C1725.04 791.876 1722.56 791.876 1720.32 792.738C1711.79 796.019 1703.88 786.762 1708.44 778.851L1715.14 767.26Z" fill="#0084FF"/>
<path d="M1715.21 768.809C1718.55 761.373 1728.9 760.841 1732.99 767.895L1741.69 782.923C1745.7 789.862 1737.11 797.202 1730.89 792.15C1729.04 790.65 1726.57 790.158 1724.28 790.834L1722.96 791.226C1714.9 793.616 1707.74 785.437 1711.19 777.761L1715.21 768.809Z" fill="#005BAF"/>
<path d="M1715.28 788.452C1719.19 782.111 1728.41 782.111 1732.31 788.452L1749.62 816.556C1754.33 824.2 1747.36 833.694 1738.65 831.495L1726.24 828.361C1724.64 827.955 1722.95 827.955 1721.35 828.361L1708.94 831.495C1700.23 833.694 1693.27 824.2 1697.97 816.556L1715.28 788.452Z" fill="#0084FF"/>
<path d="M1716.11 787.564C1719.93 780.799 1729.67 780.78 1733.51 787.531L1750.07 816.613C1754.51 824.418 1747.21 833.671 1738.59 831.163L1730.87 828.92C1729.35 828.478 1727.75 828.403 1726.2 828.7L1710.06 831.789C1701.69 833.39 1695.28 824.47 1699.47 817.053L1716.11 787.564Z" fill="#005BAF"/>
<path d="M1712.34 811.99C1716.19 805.323 1725.81 805.323 1729.66 811.99L1753.81 853.816C1758.41 861.788 1750.71 871.219 1741.98 868.3L1724.17 862.348C1722.11 861.66 1719.89 861.66 1717.83 862.348L1700.02 868.3C1691.29 871.219 1683.59 861.788 1688.19 853.816L1712.34 811.99Z" fill="#0084FF"/>
<path d="M1714.54 810.865C1718.32 803.705 1728.6 803.772 1732.28 810.981L1754.67 854.753C1758.76 862.75 1751.05 871.665 1742.55 868.775L1728.66 864.053C1726.94 863.471 1725.11 863.364 1723.34 863.743L1702.87 868.13C1694.57 869.909 1687.96 861.189 1691.93 853.683L1714.54 810.865Z" fill="#005BAF"/>
<path d="M1713.4 860.168C1717.07 852.748 1727.65 852.748 1731.33 860.168L1741.35 880.428C1745.21 888.221 1737.97 896.883 1729.62 894.471L1725.14 893.178C1723.32 892.655 1721.4 892.655 1719.59 893.178L1715.11 894.471C1706.76 896.883 1699.52 888.221 1703.37 880.428L1713.4 860.168Z" fill="#0084FF"/>
<path d="M1713.96 862.16C1716.7 853.506 1728.63 852.689 1732.53 860.888L1741.56 879.891C1745.19 887.536 1737.49 895.638 1729.67 892.396C1727.35 891.434 1724.74 891.457 1722.44 892.461L1721.64 892.808C1713.77 896.239 1705.52 888.807 1708.11 880.621L1713.96 862.16Z" fill="#005BAF"/>
<path d="M300.617 968.112C299.237 929.046 287.509 899.473 281.383 889C290.164 893.732 298.757 919.315 304.947 943.767C309.934 925.691 317.337 910.648 317.337 910.648C317.337 910.648 308.168 949.552 308.885 960.533C310.252 966.819 311.395 972.622 312.267 977.476H300.743C300.464 974.463 300.439 971.321 300.617 968.112Z" fill="url(#paint3_linear_92_22)"/>
<path d="M299.13 977.476C300.236 950.368 286.837 931.669 280 925.708C289.772 937.003 292.215 964.926 292.215 977.476H299.13Z" fill="url(#paint4_linear_92_22)"/>
<path d="M311.87 977.476C310.764 950.368 324.163 931.669 331 925.708C321.228 937.003 318.785 964.926 318.785 977.476H311.87Z" fill="url(#paint5_linear_92_22)"/>
<path d="M1863.62 956.072C1863.04 939.741 1858.14 927.378 1855.58 923C1859.25 924.978 1862.84 935.673 1865.43 945.895C1867.51 938.338 1870.61 932.05 1870.61 932.05C1870.61 932.05 1866.78 948.313 1867.07 952.904C1867.65 955.531 1868.12 957.957 1868.49 959.986H1863.67C1863.55 958.727 1863.54 957.413 1863.62 956.072Z" fill="url(#paint6_linear_92_22)"/>
<path d="M1863 959.986C1863.46 948.654 1857.86 940.837 1855 938.345C1859.09 943.067 1860.11 954.74 1860.11 959.986H1863Z" fill="url(#paint7_linear_92_22)"/>
<path d="M1868.32 959.986C1867.86 948.654 1873.46 940.837 1876.32 938.345C1872.23 943.067 1871.21 954.74 1871.21 959.986H1868.32Z" fill="url(#paint8_linear_92_22)"/>
<path d="M1521.08 966.685C1520 936.224 1510.86 913.166 1506.08 905C1512.93 908.689 1519.63 928.637 1524.45 947.703C1528.34 933.609 1534.11 921.88 1534.11 921.88C1534.11 921.88 1526.96 952.214 1527.52 960.776C1528.59 965.677 1529.48 970.201 1530.16 973.986H1521.17C1520.96 971.637 1520.94 969.187 1521.08 966.685Z" fill="url(#paint9_linear_92_22)"/>
<path d="M1519.92 973.986C1520.78 952.85 1510.33 938.27 1505 933.622C1512.62 942.429 1514.52 964.201 1514.52 973.986H1519.92Z" fill="url(#paint10_linear_92_22)"/>
<path d="M1529.85 973.986C1528.99 952.85 1539.43 938.27 1544.77 933.622C1537.15 942.429 1535.24 964.201 1535.24 973.986H1529.85Z" fill="url(#paint11_linear_92_22)"/>
<path d="M1624.92 1049.45C1625.78 1028.32 1615.33 1013.74 1610 1009.09C1617.62 1017.9 1619.52 1039.67 1619.52 1049.45H1624.92Z" fill="url(#paint12_linear_92_22)"/>
<path d="M473.05 980.364C472.188 959.228 482.635 944.648 487.966 940C480.346 948.807 478.442 970.579 478.442 980.364H473.05Z" fill="url(#paint13_linear_92_22)"/>
<path d="M1991.82 1021.68C1992.68 1000.54 1982.24 985.962 1976.91 981.314C1984.53 990.121 1986.43 1011.89 1986.43 1021.68H1991.82Z" fill="url(#paint14_linear_92_22)"/>
<path d="M1986.9 1015.59C1986.04 994.453 1996.48 979.873 2001.81 975.225C1994.19 984.031 1992.29 1005.8 1992.29 1015.59H1986.9Z" fill="url(#paint15_linear_92_22)"/>
<path d="M1991.82 1006.45C1992.68 985.318 1982.24 970.738 1976.91 966.09C1984.53 974.897 1986.43 996.669 1986.43 1006.45H1991.82Z" fill="url(#paint16_linear_92_22)"/>
<path d="M1986.9 1000.36C1986.04 979.228 1996.48 964.648 2001.81 960C1994.19 968.807 1992.29 990.579 1992.29 1000.36H1986.9Z" fill="url(#paint17_linear_92_22)"/>
<path d="M1975.92 1031.83C1976.78 1010.69 1966.33 996.112 1961 991.464C1968.62 1000.27 1970.52 1022.04 1970.52 1031.83H1975.92Z" fill="url(#paint18_linear_92_22)"/>
<path d="M1970.99 1025.74C1970.13 1004.6 1980.58 990.023 1985.91 985.375C1978.29 994.181 1976.38 1015.95 1976.38 1025.74H1970.99Z" fill="url(#paint19_linear_92_22)"/>
<path d="M1617.58 907.509C1607.74 907.509 1601.06 901.942 1591.27 901.825C1591.27 913.193 1592.44 947.122 1592.44 958.021C1602.29 957.26 1605.8 959.486 1617.58 958.842C1637.68 944.895 1636.39 917.236 1617.58 907.509Z" fill="#024381"/>
<path d="M1659.83 975.776L1570.17 981.636V958.079L1658.42 955.266C1665.4 957.434 1665.92 973.256 1659.83 975.776Z" fill="#044F95"/>
<path d="M1579.2 964.291C1582.01 964.466 1581.72 965.404 1588.28 964.291C1594.84 963.177 1597.42 962.181 1600.65 963.236C1603.87 964.291 1615.06 964.291 1618.4 964.291C1621.74 964.291 1626.08 964.291 1628.13 964.291C1630.18 964.291 1632.76 964.291 1635.16 963.763C1637.56 963.236 1642.95 963.236 1644.18 963.236M1592.21 973.08C1593.32 973.08 1602.99 973.08 1606.45 973.08C1609.9 973.08 1613.65 972.905 1616.99 972.201C1620.33 971.498 1620.04 970.971 1623.73 970.971C1627.42 970.971 1631.18 970.971 1634.57 970.971C1637.97 970.971 1639.09 970.326 1640.9 970.209C1642.72 970.092 1645.94 969.565 1647.93 969.272C1649.93 968.979 1652.45 968.568 1654.15 968.568C1655.51 968.568 1658.19 968.568 1659.36 968.568" stroke="#003362"/>
<ellipse cx="1570.23" cy="969.858" rx="7.91088" ry="11.7784" fill="#BFDCF8"/>
<path d="M1562.57 932.016L1560.3 934.913L1556.62 923.822L1625.46 895.325L1630.73 911.183L1628.76 910.116L1628.38 909.915L1628.12 910.248L1625.49 913.618L1621.37 912.492L1621.04 912.405L1620.84 912.667L1618.21 916.037L1614.08 914.911L1613.76 914.823L1613.56 915.086L1610.92 918.456L1606.8 917.33L1606.48 917.242L1606.27 917.504L1603.64 920.874L1599.51 919.748L1599.19 919.661L1598.99 919.923L1596.35 923.293L1592.23 922.167L1591.91 922.079L1591.7 922.341L1589.07 925.711L1584.94 924.585L1584.62 924.498L1584.42 924.76L1581.79 928.13L1577.66 927.004L1577.34 926.916L1577.13 927.179L1574.5 930.549L1570.38 929.423L1570.06 929.335L1569.85 929.597L1567.22 932.967L1563.09 931.841L1562.77 931.754L1562.57 932.016ZM1645.39 889.968L1644.92 890.125L1645.08 890.6L1650.1 905.743L1650.26 906.217L1650.74 906.06L1656.19 904.25L1656.66 904.092L1656.5 903.618L1651.48 888.474L1651.32 888L1650.84 888.157L1645.39 889.968ZM1634.33 913.814L1627.01 891.746L1635.75 888.843L1643.08 910.911L1634.33 913.814ZM1650.9 904.953L1646.18 890.759L1650.68 889.264L1655.4 903.458L1650.9 904.953ZM1639.72 889.541L1651.5 885.632L1657.72 904.369L1645.95 908.277L1639.72 889.541Z" fill="url(#paint20_linear_92_22)" stroke="#024280"/>
<path d="M1615.85 929.952C1615.85 945.265 1604.77 957.58 1591.21 957.58C1577.65 957.58 1566.57 945.265 1566.57 929.952C1566.57 914.64 1577.65 902.325 1591.21 902.325C1604.77 902.325 1615.85 914.64 1615.85 929.952Z" fill="#BFDCF8" stroke="#044F95"/>
<path d="M1601.23 920.635C1600.9 919.744 1598.16 917.646 1596.84 916.708H1596.31C1595.74 916.474 1594.18 915.747 1592.44 914.716C1590.27 913.427 1588.98 914.716 1585.41 914.716C1581.83 914.716 1583.48 915.419 1578.79 918.115C1574.1 920.81 1578.26 919.404 1577.85 922.744C1577.44 926.084 1576.85 927.432 1574.33 937.452C1572.22 946.067 1574.57 940.675 1575.15 942.609C1575.74 944.543 1575.86 943.723 1579.9 945.188C1583.94 946.653 1583.48 946.301 1585.41 947.004C1587.34 947.707 1590.62 946.301 1596.84 945.188C1603.05 944.074 1599.53 943.078 1601.23 940.675C1602.93 938.273 1602.58 937.57 1603.99 935.577C1605.39 933.585 1603.05 928.838 1602.58 926.26C1602.11 923.682 1601.64 921.748 1601.23 920.635Z" stroke="#87939E" stroke-width="3"/>
<path d="M1584.93 925.671C1585.97 925.299 1588.13 924.534 1588.51 924.44C1589.76 924.108 1592.48 923.643 1593.37 924.44C1594.49 925.436 1594.13 925.671 1595.13 932.585C1595.42 936.804 1594.84 934.285 1594.13 935.691C1593.43 937.097 1592.73 936.804 1591.26 936.863C1589.8 936.922 1588.51 936.394 1585.93 935.691C1583.35 934.988 1583.82 934.167 1583.82 932.585V930.066L1583 928.366L1584.93 925.671Z" stroke="#87939E" stroke-width="3"/>
<path d="M1569.76 966.576L1568.42 967.455V970.385C1568.24 970.502 1567.99 970.983 1568.42 971.967C1568.94 973.198 1568.88 973.373 1569.76 973.901C1570.64 974.428 1570.76 975.835 1571.46 973.901C1572.34 971.088 1572.87 972.084 1572.46 970.385C1571.46 967.455 1571.52 966.576 1570.64 966.576M1572.05 963.939C1572.19 964.212 1572.56 964.888 1572.99 965.404C1573.51 966.049 1575.56 967.982 1575.62 968.803C1575.68 969.623 1576.15 969.33 1575.62 971.498C1575.1 973.666 1575.15 974.018 1574.28 975.131C1573.4 976.245 1574.1 977.007 1572.05 977.417C1570 977.827 1569.41 977.417 1568.53 977.417C1567.65 977.417 1567.54 977.827 1566.72 975.776C1565.9 971.908 1565.43 967.045 1565.66 966.635C1565.9 966.224 1566.48 964.994 1567.3 964.701C1568.12 964.408 1571.11 962.474 1572.05 963.939Z" stroke="#87939E"/>
<path d="M1615.26 920.426C1617.65 918.269 1620.56 918.589 1621.71 919.019H1624.7M1622.3 930.387C1625.11 930.153 1625.46 929.743 1626.92 929.743H1629.5L1630.03 932.438M1608.93 952.421C1609.23 952.948 1611.69 954.179 1612.98 954.413C1614.27 954.648 1615.5 954.413 1616.85 954.413C1618.19 954.413 1618.55 955.058 1619.31 954.413C1619.92 953.898 1622.41 951.425 1623.58 950.253M1615.65 939.549C1615.33 939.485 1615.06 939.437 1614.85 939.412C1615.06 939.452 1615.33 939.499 1615.65 939.549ZM1615.65 939.549C1617.56 939.933 1621.18 940.893 1621.89 940.994C1622.71 941.111 1623.53 940.994 1624.52 940.994H1629.21C1626.03 940.888 1618.63 940.026 1615.65 939.549Z" stroke="#003362"/>
<path d="M1585.08 994.112L1570.63 981.592L1659.53 975.81L1687 985.322L1665.32 988.618L1628.45 993.013L1611.1 1004L1593.03 994.112H1585.08Z" fill="url(#paint21_linear_92_22)"/>
<defs>
<linearGradient id="paint0_linear_92_22" x1="933" y1="950" x2="933" y2="-1.16575e-05" gradientUnits="userSpaceOnUse">
<stop stop-color="white"/>
<stop offset="1" stop-color="#EBF5FF"/>
</linearGradient>
<linearGradient id="paint1_linear_92_22" x1="1114" y1="1099" x2="1114" y2="895.725" gradientUnits="userSpaceOnUse">
<stop stop-color="white"/>
<stop offset="1" stop-color="#EBF5FF"/>
</linearGradient>
<linearGradient id="paint2_linear_92_22" x1="588.911" y1="951.83" x2="588.911" y2="1078.73" gradientUnits="userSpaceOnUse">
<stop stop-color="#0084FF" stop-opacity="0.51"/>
<stop offset="1" stop-color="#0084FF" stop-opacity="0"/>
</linearGradient>
<linearGradient id="paint3_linear_92_22" x1="299.36" y1="889" x2="299.36" y2="977.476" gradientUnits="userSpaceOnUse">
<stop stop-color="#0084FF"/>
<stop offset="1" stop-color="white" stop-opacity="0"/>
</linearGradient>
<linearGradient id="paint4_linear_92_22" x1="289.597" y1="925.708" x2="289.597" y2="977.476" gradientUnits="userSpaceOnUse">
<stop stop-color="#0084FF"/>
<stop offset="1" stop-color="white" stop-opacity="0"/>
</linearGradient>
<linearGradient id="paint5_linear_92_22" x1="321.403" y1="925.708" x2="321.403" y2="977.476" gradientUnits="userSpaceOnUse">
<stop stop-color="#0084FF"/>
<stop offset="1" stop-color="white" stop-opacity="0"/>
</linearGradient>
<linearGradient id="paint6_linear_92_22" x1="1863.09" y1="923" x2="1863.09" y2="959.986" gradientUnits="userSpaceOnUse">
<stop stop-color="#0084FF"/>
<stop offset="1" stop-color="white" stop-opacity="0"/>
</linearGradient>
<linearGradient id="paint7_linear_92_22" x1="1859.01" y1="938.345" x2="1859.01" y2="959.986" gradientUnits="userSpaceOnUse">
<stop stop-color="#0084FF"/>
<stop offset="1" stop-color="white" stop-opacity="0"/>
</linearGradient>
<linearGradient id="paint8_linear_92_22" x1="1872.31" y1="938.345" x2="1872.31" y2="959.986" gradientUnits="userSpaceOnUse">
<stop stop-color="#0084FF"/>
<stop offset="1" stop-color="white" stop-opacity="0"/>
</linearGradient>
<linearGradient id="paint9_linear_92_22" x1="1520.1" y1="905" x2="1520.1" y2="973.986" gradientUnits="userSpaceOnUse">
<stop stop-color="#0084FF"/>
<stop offset="1" stop-color="white" stop-opacity="0"/>
</linearGradient>
<linearGradient id="paint10_linear_92_22" x1="1512.48" y1="933.622" x2="1512.48" y2="973.986" gradientUnits="userSpaceOnUse">
<stop stop-color="#0084FF"/>
<stop offset="1" stop-color="white" stop-opacity="0"/>
</linearGradient>
<linearGradient id="paint11_linear_92_22" x1="1537.28" y1="933.622" x2="1537.28" y2="973.986" gradientUnits="userSpaceOnUse">
<stop stop-color="#0084FF"/>
<stop offset="1" stop-color="white" stop-opacity="0"/>
</linearGradient>
<linearGradient id="paint12_linear_92_22" x1="1617.48" y1="1009.09" x2="1617.48" y2="1049.45" gradientUnits="userSpaceOnUse">
<stop stop-color="#0084FF"/>
<stop offset="1" stop-color="white" stop-opacity="0"/>
</linearGradient>
<linearGradient id="paint13_linear_92_22" x1="480.483" y1="940" x2="480.483" y2="980.364" gradientUnits="userSpaceOnUse">
<stop stop-color="#0084FF"/>
<stop offset="1" stop-color="white" stop-opacity="0"/>
</linearGradient>
<linearGradient id="paint14_linear_92_22" x1="1984.39" y1="981.314" x2="1984.39" y2="1021.68" gradientUnits="userSpaceOnUse">
<stop stop-color="#0084FF"/>
<stop offset="1" stop-color="white" stop-opacity="0"/>
</linearGradient>
<linearGradient id="paint15_linear_92_22" x1="1994.33" y1="975.225" x2="1994.33" y2="1015.59" gradientUnits="userSpaceOnUse">
<stop stop-color="#0084FF"/>
<stop offset="1" stop-color="white" stop-opacity="0"/>
</linearGradient>
<linearGradient id="paint16_linear_92_22" x1="1984.39" y1="966.09" x2="1984.39" y2="1006.45" gradientUnits="userSpaceOnUse">
<stop stop-color="#0084FF"/>
<stop offset="1" stop-color="white" stop-opacity="0"/>
</linearGradient>
<linearGradient id="paint17_linear_92_22" x1="1994.33" y1="960" x2="1994.33" y2="1000.36" gradientUnits="userSpaceOnUse">
<stop stop-color="#0084FF"/>
<stop offset="1" stop-color="white" stop-opacity="0"/>
</linearGradient>
<linearGradient id="paint18_linear_92_22" x1="1968.48" y1="991.464" x2="1968.48" y2="1031.83" gradientUnits="userSpaceOnUse">
<stop stop-color="#0084FF"/>
<stop offset="1" stop-color="white" stop-opacity="0"/>
</linearGradient>
<linearGradient id="paint19_linear_92_22" x1="1978.42" y1="985.375" x2="1978.42" y2="1025.74" gradientUnits="userSpaceOnUse">
<stop stop-color="#0084FF"/>
<stop offset="1" stop-color="white" stop-opacity="0"/>
</linearGradient>
<linearGradient id="paint20_linear_92_22" x1="1607.17" y1="885" x2="1607.17" y2="935.956" gradientUnits="userSpaceOnUse">
<stop stop-color="#D9D9D9"/>
<stop offset="1" stop-color="#D9D9D9" stop-opacity="0"/>
</linearGradient>
<linearGradient id="paint21_linear_92_22" x1="1608.93" y1="977.255" x2="1612.21" y2="993.361" gradientUnits="userSpaceOnUse">
<stop stop-color="#005BAF" stop-opacity="0.55"/>
<stop offset="1" stop-color="#005BAF" stop-opacity="0"/>
</linearGradient>
</defs>
</svg>
