<svg width="1216" height="988" viewBox="0 0 1216 988" fill="none" xmlns="http://www.w3.org/2000/svg">
<path d="M138.301 162L181.603 187V237L138.301 262L95 237V187L138.301 162Z" fill="#0084FF"/>
<path d="M138.301 324L181.603 349V399L138.301 424L95 399V349L138.301 324Z" fill="#0084FF"/>
<path d="M91.3013 243L134.603 268V318L91.3013 343L48 318V268L91.3013 243Z" fill="#0084FF"/>
<path d="M91.3013 405L134.603 430V480L91.3013 505L48 480V430L91.3013 405Z" fill="#0084FF"/>
<path d="M137.301 485L180.603 510V560L137.301 585L94 560V510L137.301 485Z" fill="#0084FF"/>
<path d="M702.301 162L745.603 187V237L702.301 262L659 237V187L702.301 162Z" fill="#0084FF"/>
<path d="M702.301 324L745.603 349V399L702.301 424L659 399V349L702.301 324Z" fill="#0084FF"/>
<path d="M655.301 243L698.603 268V318L655.301 343L612 318V268L655.301 243Z" fill="#0084FF"/>
<path d="M655.301 405L698.603 430V480L655.301 505L612 480V430L655.301 405Z" fill="#0084FF"/>
<path d="M701.301 485L744.603 510V560L701.301 585L658 560V510L701.301 485Z" fill="#0084FF"/>
<path d="M420.301 162L463.603 187V237L420.301 262L377 237V187L420.301 162Z" fill="#0084FF"/>
<path d="M420.301 324L463.603 349V399L420.301 424L377 399V349L420.301 324Z" fill="#0084FF"/>
<path d="M373.301 243L416.603 268V318L373.301 343L330 318V268L373.301 243Z" fill="#0084FF"/>
<path d="M373.301 405L416.603 430V480L373.301 505L330 480V430L373.301 405Z" fill="#0084FF"/>
<path d="M419.301 485L462.603 510V560L419.301 585L376 560V510L419.301 485Z" fill="#0084FF"/>
<path d="M984.301 162L1027.6 187V237L984.301 262L941 237V187L984.301 162Z" fill="#0084FF"/>
<path d="M984.301 324L1027.6 349V399L984.301 424L941 399V349L984.301 324Z" fill="#0084FF"/>
<path d="M937.301 243L980.603 268V318L937.301 343L894 318V268L937.301 243Z" fill="#0084FF"/>
<path d="M937.301 405L980.603 430V480L937.301 505L894 480V430L937.301 405Z" fill="#0084FF"/>
<path d="M983.301 485L1026.6 510V560L983.301 585L940 560V510L983.301 485Z" fill="#0084FF"/>
<path d="M232.301 162L275.603 187V237L232.301 262L189 237V187L232.301 162Z" fill="#0084FF"/>
<path d="M191 350.155L232.301 326.309L273.603 350.155V397.845L232.301 421.691L191 397.845V350.155Z" stroke="#0084FF" stroke-width="4"/>
<path d="M185.301 243L228.603 268V318L185.301 343L142 318V268L185.301 243Z" fill="#0084FF"/>
<path d="M185.301 405L228.603 430V480L185.301 505L142 480V430L185.301 405Z" fill="#0084FF"/>
<path d="M231.301 485L274.603 510V560L231.301 585L188 560V510L231.301 485Z" fill="#0084FF"/>
<path d="M796.301 162L839.603 187V237L796.301 262L753 237V187L796.301 162Z" fill="#0084FF"/>
<path d="M796.301 324L839.603 349V399L796.301 424L753 399V349L796.301 324Z" fill="#0084FF"/>
<path d="M749.301 243L792.603 268V318L749.301 343L706 318V268L749.301 243Z" fill="#0084FF"/>
<path d="M749.301 405L792.603 430V480L749.301 505L706 480V430L749.301 405Z" fill="#0084FF"/>
<path d="M754 511.155L795.301 487.309L836.603 511.155V558.845L795.301 582.691L754 558.845V511.155Z" stroke="#0084FF" stroke-width="4"/>
<path d="M514.301 162L557.603 187V237L514.301 262L471 237V187L514.301 162Z" fill="#0084FF"/>
<path d="M514.301 324L557.603 349V399L514.301 424L471 399V349L514.301 324Z" fill="#0084FF"/>
<path d="M467.301 243L510.603 268V318L467.301 343L424 318V268L467.301 243Z" fill="#0084FF"/>
<path d="M467.301 405L510.603 430V480L467.301 505L424 480V430L467.301 405Z" fill="#0084FF"/>
<path d="M513.301 485L556.603 510V560L513.301 585L470 560V510L513.301 485Z" fill="#0084FF"/>
<path d="M1078.3 162L1121.6 187V237L1078.3 262L1035 237V187L1078.3 162Z" fill="#0084FF"/>
<path d="M1037 350.155L1078.3 326.309L1119.6 350.155V397.845L1078.3 421.691L1037 397.845V350.155Z" stroke="#0084FF" stroke-width="4"/>
<path d="M1031.3 243L1074.6 268V318L1031.3 343L988 318V268L1031.3 243Z" fill="#0084FF"/>
<path d="M1031.3 405L1074.6 430V480L1031.3 505L988 480V430L1031.3 405Z" fill="#0084FF"/>
<path d="M1077.3 485L1120.6 510V560L1077.3 585L1034 560V510L1077.3 485Z" fill="#0084FF"/>
<path d="M326.301 162L369.603 187V237L326.301 262L283 237V187L326.301 162Z" fill="#0084FF"/>
<path d="M326.301 324L369.603 349V399L326.301 424L283 399V349L326.301 324Z" fill="#0084FF"/>
<path d="M843.301 243L886.603 268V318L843.301 343L800 318V268L843.301 243Z" fill="#0084FF"/>
<path d="M279.301 405L322.603 430V480L279.301 505L236 480V430L279.301 405Z" fill="#0084FF"/>
<path d="M325.301 485L368.603 510V560L325.301 585L282 560V510L325.301 485Z" fill="#0084FF"/>
<path d="M849 188.155L890.301 164.309L931.603 188.155V235.845L890.301 259.691L849 235.845V188.155Z" stroke="#0084FF" stroke-width="4"/>
<path d="M890.301 324L933.603 349V399L890.301 424L847 399V349L890.301 324Z" fill="#0084FF"/>
<path d="M279.301 243L322.603 268V318L279.301 343L236 318V268L279.301 243Z" fill="#0084FF"/>
<path d="M843.301 405L886.603 430V480L843.301 505L800 480V430L843.301 405Z" fill="#0084FF"/>
<path d="M889.301 485L932.603 510V560L889.301 585L846 560V510L889.301 485Z" fill="#0084FF"/>
<path d="M608.301 162L651.603 187V237L608.301 262L565 237V187L608.301 162Z" fill="#0084FF"/>
<path d="M1125.3 405L1168.6 430V480L1125.3 505L1082 480V430L1125.3 405Z" fill="#0084FF"/>
<path d="M561.301 243L604.603 268V318L561.301 343L518 318V268L561.301 243Z" fill="#0084FF"/>
<path d="M561.301 405L604.603 430V480L561.301 505L518 480V430L561.301 405Z" fill="#0084FF"/>
<path d="M607.301 485L650.603 510V560L607.301 585L564 560V510L607.301 485Z" fill="#0084FF"/>
<path d="M1172.3 162L1215.6 187V237L1172.3 262L1129 237V187L1172.3 162Z" fill="#0084FF"/>
<path d="M1172.3 324L1215.6 349V399L1172.3 424L1129 399V349L1172.3 324Z" fill="#0084FF"/>
<path d="M1125.3 243L1168.6 268V318L1125.3 343L1082 318V268L1125.3 243Z" fill="#0084FF"/>
<path d="M608.301 324L651.603 349V399L608.301 424L565 399V349L608.301 324Z" fill="#0084FF"/>
<path d="M1171.3 485L1214.6 510V560L1171.3 585L1128 560V510L1171.3 485Z" fill="#0084FF"/>
<path d="M49 591.155L90.3013 567.309L131.603 591.155V638.845L90.3013 662.691L49 638.845V591.155Z" stroke="#0084FF" stroke-width="4"/>
<path d="M90.3013 727L133.603 752V802L90.3013 827L47 802V752L90.3013 727Z" fill="#0084FF"/>
<path d="M43.3013 646L86.6025 671V721L43.3013 746L0 721V671L43.3013 646Z" fill="#0084FF"/>
<path d="M660 881.845L701.301 905.691L742.603 881.845V834.155L701.301 810.309L660 834.155V881.845Z" stroke="#0084FF" stroke-width="4"/>
<path d="M137.301 808L180.603 833V883L137.301 908L94 883V833L137.301 808Z" fill="#0084FF"/>
<path d="M654.301 565L697.603 590V640L654.301 665L611 640V590L654.301 565Z" fill="#0084FF"/>
<path d="M654.301 727L697.603 752V802L654.301 827L611 802V752L654.301 727Z" fill="#0084FF"/>
<path d="M607.301 646L650.603 671V721L607.301 746L564 721V671L607.301 646Z" fill="#0084FF"/>
<path d="M466.301 888L509.603 913V963L466.301 988L423 963V913L466.301 888Z" fill="#0084FF"/>
<path d="M326.301 0L369.603 25V75L326.301 100L283 75V25L326.301 0Z" fill="#0084FF"/>
<path d="M372.301 565L415.603 590V640L372.301 665L329 640V590L372.301 565Z" fill="#0084FF"/>
<path d="M372.301 727L415.603 752V802L372.301 827L329 802V752L372.301 727Z" fill="#0084FF"/>
<path d="M325.301 646L368.603 671V721L325.301 746L282 721V671L325.301 646Z" fill="#0084FF"/>
<path d="M373.301 180L416.603 155V105L373.301 80L330 105V155L373.301 180Z" fill="#0084FF"/>
<path d="M419.301 808L462.603 833V883L419.301 908L376 883V833L419.301 808Z" fill="#0084FF"/>
<path d="M936.301 565L979.603 590V640L936.301 665L893 640V590L936.301 565Z" fill="#0084FF"/>
<path d="M936.301 727L979.603 752V802L936.301 827L893 802V752L936.301 727Z" fill="#0084FF"/>
<path d="M889.301 646L932.603 671V721L889.301 746L846 721V671L889.301 646Z" fill="#0084FF"/>
<path d="M748.301 888L791.603 913V963L748.301 988L705 963V913L748.301 888Z" fill="#0084FF"/>
<path d="M748.301 80L791.603 105V155L748.301 180L705 155V105L748.301 80Z" fill="#0084FF"/>
<path d="M184.301 565L227.603 590V640L184.301 665L141 640V590L184.301 565Z" fill="#0084FF"/>
<path d="M184.301 727L227.603 752V802L184.301 827L141 802V752L184.301 727Z" fill="#0084FF"/>
<path d="M137.301 646L180.603 671V721L137.301 746L94 721V671L137.301 646Z" fill="#0084FF"/>
<path d="M795.301 908L838.603 883V833L795.301 808L752 833V883L795.301 908Z" fill="#0084FF"/>
<path d="M231.301 808L274.603 833V883L231.301 908L188 883V833L231.301 808Z" fill="#0084FF"/>
<path d="M748.301 565L791.603 590V640L748.301 665L705 640V590L748.301 565Z" fill="#0084FF"/>
<path d="M748.301 727L791.603 752V802L748.301 827L705 802V752L748.301 727Z" fill="#0084FF"/>
<path d="M701.301 646L744.603 671V721L701.301 746L658 721V671L701.301 646Z" fill="#0084FF"/>
<path d="M560.301 888L603.603 913V963L560.301 988L517 963V913L560.301 888Z" fill="#0084FF"/>
<path d="M420.301 0L463.603 25V75L420.301 100L377 75V25L420.301 0Z" fill="#0084FF"/>
<path d="M466.301 565L509.603 590V640L466.301 665L423 640V590L466.301 565Z" fill="#0084FF"/>
<path d="M466.301 727L509.603 752V802L466.301 827L423 802V752L466.301 727Z" fill="#0084FF"/>
<path d="M419.301 646L462.603 671V721L419.301 746L376 721V671L419.301 646Z" fill="#0084FF"/>
<path d="M984.301 908L1027.6 883V833L984.301 808L941 833V883L984.301 908Z" fill="#0084FF"/>
<path d="M513.301 808L556.603 833V883L513.301 908L470 883V833L513.301 808Z" fill="#0084FF"/>
<path d="M1030.3 565L1073.6 590V640L1030.3 665L987 640V590L1030.3 565Z" fill="#0084FF"/>
<path d="M1030.3 727L1073.6 752V802L1030.3 827L987 802V752L1030.3 727Z" fill="#0084FF"/>
<path d="M983.301 646L1026.6 671V721L983.301 746L940 721V671L983.301 646Z" fill="#0084FF"/>
<path d="M652.301 80L695.603 105V155L652.301 180L609 155V105L652.301 80Z" fill="#0084FF"/>
<path d="M559.301 80L602.603 105V155L559.301 180L516 155V105L559.301 80Z" fill="#0084FF"/>
<path d="M278.301 565L321.603 590V640L278.301 665L235 640V590L278.301 565Z" fill="#0084FF"/>
<path d="M237 753.155L278.301 729.309L319.603 753.155V800.845L278.301 824.691L237 800.845V753.155Z" stroke="#0084FF" stroke-width="4"/>
<path d="M795.301 646L838.603 671V721L795.301 746L752 721V671L795.301 646Z" fill="#0084FF"/>
<path d="M936.301 180L979.603 155V105L936.301 80L893 105V155L936.301 180Z" fill="#0084FF"/>
<path d="M325.301 808L368.603 833V883L325.301 908L282 883V833L325.301 808Z" fill="#0084FF"/>
<path d="M842.301 565L885.603 590V640L842.301 665L799 640V590L842.301 565Z" fill="#0084FF"/>
<path d="M842.301 727L885.603 752V802L842.301 827L799 802V752L842.301 727Z" fill="#0084FF"/>
<path d="M231.301 646L274.603 671V721L231.301 746L188 721V671L231.301 646Z" fill="#0084FF"/>
<path d="M654.301 888L697.603 913V963L654.301 988L611 963V913L654.301 888Z" fill="#0084FF"/>
<path d="M514.301 0L557.603 25V75L514.301 100L471 75V25L514.301 0Z" fill="#0084FF"/>
<path d="M560.301 565L603.603 590V640L560.301 665L517 640V590L560.301 565Z" fill="#0084FF"/>
<path d="M843.301 80L886.603 105V155L843.301 180L800 155V105L843.301 80Z" fill="#0084FF"/>
<path d="M513.301 646L556.603 671V721L513.301 746L470 721V671L513.301 646Z" fill="#0084FF"/>
<path d="M47.3013 262L90.6025 237V187L47.3013 162L4 187V237L47.3013 262Z" fill="#0084FF"/>
<path d="M607.301 808L650.603 833V883L607.301 908L564 883V833L607.301 808Z" fill="#0084FF"/>
<path d="M1124.3 565L1167.6 590V640L1124.3 665L1081 640V590L1124.3 565Z" fill="#0084FF"/>
<path d="M1124.3 727L1167.6 752V802L1124.3 827L1081 802V752L1124.3 727Z" fill="#0084FF"/>
<path d="M1077.3 646L1120.6 671V721L1077.3 746L1034 721V671L1077.3 646Z" fill="#0084FF"/>
<path d="M560.301 727L603.603 752V802L560.301 827L517 802V752L560.301 727Z" fill="#0084FF"/>
<path d="M425 106.155L466.301 82.3094L507.603 106.155V153.845L466.301 177.691L425 153.845V106.155Z" stroke="#0084FF" stroke-width="4"/>
</svg>
