<svg width="1869" height="973" viewBox="0 0 1869 973" fill="none" xmlns="http://www.w3.org/2000/svg">
<path d="M643 228.738C637.477 228.738 633 224.26 633 218.738V137.783C633 132.26 637.477 127.783 643 127.783H723.955C729.478 127.783 733.955 132.26 733.955 137.783V218.738C733.955 224.26 729.478 228.738 723.955 228.738L643 228.738Z" stroke="url(#paint0_radial_60_18)" stroke-width="9"/>
<path d="M643 105.955C637.477 105.955 633 101.478 633 95.9548V15C633 9.47718 637.477 5.00003 643 5.00003L723.955 5.00002C729.478 5.00002 733.955 9.47717 733.955 15V95.9548C733.955 101.478 729.478 105.955 723.955 105.955H643Z" stroke="url(#paint1_radial_60_18)" stroke-width="9"/>
<path d="M643 351.52C637.477 351.52 633 347.043 633 341.52V260.566C633 255.043 637.477 250.566 643 250.566L723.955 250.566C729.478 250.566 733.955 255.043 733.955 260.566V341.52C733.955 347.043 729.478 351.52 723.955 351.52H643Z" stroke="url(#paint2_radial_60_18)" stroke-width="9"/>
<path d="M643 474.303C637.477 474.303 633 469.826 633 464.303V383.348C633 377.826 637.477 373.348 643 373.348L723.955 373.348C729.478 373.348 733.955 377.826 733.955 383.348L733.955 464.303C733.955 469.826 729.478 474.303 723.955 474.303H643Z" stroke="url(#paint3_radial_60_18)" stroke-width="9"/>
<path d="M768.511 228.738C762.989 228.738 758.511 224.26 758.511 218.738V137.783C758.511 132.26 762.989 127.783 768.511 127.783L849.466 127.783C854.989 127.783 859.466 132.26 859.466 137.783V218.738C859.466 224.26 854.989 228.738 849.466 228.738H768.511Z" stroke="url(#paint4_radial_60_18)" stroke-width="9"/>
<path d="M768.511 105.955C762.989 105.955 758.511 101.478 758.511 95.9548V15C758.511 9.47717 762.989 5.00002 768.511 5.00002L849.466 5.00002C854.989 5.00002 859.466 9.47717 859.466 15V95.9548C859.466 101.478 854.989 105.955 849.466 105.955L768.511 105.955Z" stroke="url(#paint5_radial_60_18)" stroke-width="9"/>
<path d="M768.511 351.52C762.989 351.52 758.511 347.043 758.511 341.52V260.566C758.511 255.043 762.989 250.566 768.511 250.566H849.466C854.989 250.566 859.466 255.043 859.466 260.566V341.52C859.466 347.043 854.989 351.52 849.466 351.52H768.511Z" stroke="url(#paint6_radial_60_18)" stroke-width="9"/>
<path d="M768.511 474.303C762.989 474.303 758.511 469.826 758.511 464.303V383.348C758.511 377.826 762.989 373.348 768.511 373.348H849.466C854.989 373.348 859.466 377.826 859.466 383.348V464.303C859.466 469.826 854.989 474.303 849.466 474.303H768.511Z" stroke="url(#paint7_radial_60_18)" stroke-width="9"/>
<path d="M894.023 228.738C888.5 228.738 884.023 224.26 884.023 218.738L884.023 137.783C884.023 132.26 888.5 127.783 894.023 127.783L974.977 127.783C980.5 127.783 984.977 132.26 984.977 137.783V218.738C984.977 224.26 980.5 228.738 974.977 228.738H894.023Z" stroke="url(#paint8_radial_60_18)" stroke-width="9"/>
<path d="M894.023 105.955C888.5 105.955 884.023 101.478 884.023 95.9548V15C884.023 9.47717 888.5 5.00001 894.023 5.00001L974.977 5.00001C980.5 5.00001 984.977 9.47716 984.977 15V95.9548C984.977 101.478 980.5 105.955 974.977 105.955L894.023 105.955Z" stroke="url(#paint9_radial_60_18)" stroke-width="9"/>
<path d="M894.023 351.52C888.5 351.52 884.023 347.043 884.023 341.52V260.566C884.023 255.043 888.5 250.566 894.023 250.566H974.977C980.5 250.566 984.977 255.043 984.977 260.566V341.52C984.977 347.043 980.5 351.52 974.977 351.52H894.023Z" stroke="url(#paint10_radial_60_18)" stroke-width="9"/>
<path d="M894.023 474.303C888.5 474.303 884.023 469.826 884.023 464.303V383.348C884.023 377.826 888.5 373.348 894.023 373.348H974.977C980.5 373.348 984.977 377.826 984.977 383.348V464.303C984.977 469.826 980.5 474.303 974.977 474.303H894.023Z" stroke="url(#paint11_radial_60_18)" stroke-width="9"/>
<path d="M1019.53 228.738C1014.01 228.738 1009.53 224.26 1009.53 218.738V137.783C1009.53 132.26 1014.01 127.783 1019.53 127.783H1100.49C1106.01 127.783 1110.49 132.26 1110.49 137.783V218.738C1110.49 224.26 1106.01 228.738 1100.49 228.738L1019.53 228.738Z" stroke="url(#paint12_radial_60_18)" stroke-width="9"/>
<path d="M1019.53 105.955C1014.01 105.955 1009.53 101.478 1009.53 95.9548V15C1009.53 9.47716 1014.01 5.00001 1019.53 5.00001L1100.49 5.00001C1106.01 5.00001 1110.49 9.47716 1110.49 15V95.9548C1110.49 101.478 1106.01 105.955 1100.49 105.955H1019.53Z" stroke="url(#paint13_radial_60_18)" stroke-width="9"/>
<path d="M1019.53 351.52C1014.01 351.52 1009.53 347.043 1009.53 341.52V260.566C1009.53 255.043 1014.01 250.566 1019.53 250.566L1100.49 250.566C1106.01 250.566 1110.49 255.043 1110.49 260.566V341.52C1110.49 347.043 1106.01 351.52 1100.49 351.52H1019.53Z" stroke="url(#paint14_radial_60_18)" stroke-width="9"/>
<path d="M1019.53 474.303C1014.01 474.303 1009.53 469.826 1009.53 464.303V383.348C1009.53 377.826 1014.01 373.348 1019.53 373.348H1100.49C1106.01 373.348 1110.49 377.826 1110.49 383.348V464.303C1110.49 469.826 1106.01 474.303 1100.49 474.303H1019.53Z" stroke="url(#paint15_radial_60_18)" stroke-width="9"/>
<path d="M1145.05 228.738C1139.52 228.738 1135.05 224.26 1135.05 218.738V137.783C1135.05 132.26 1139.52 127.783 1145.05 127.783H1226C1231.52 127.783 1236 132.26 1236 137.783V218.738C1236 224.26 1231.52 228.738 1226 228.738H1145.05Z" stroke="url(#paint16_radial_60_18)" stroke-width="9"/>
<path d="M1145.05 105.955C1139.52 105.955 1135.05 101.478 1135.05 95.9548V15C1135.05 9.47716 1139.52 5 1145.05 5L1226 5C1231.52 5 1236 9.47715 1236 15V95.9547C1236 101.478 1231.52 105.955 1226 105.955H1145.05Z" stroke="url(#paint17_radial_60_18)" stroke-width="9"/>
<path d="M1145.05 351.52C1139.52 351.52 1135.05 347.043 1135.05 341.52V260.566C1135.05 255.043 1139.52 250.566 1145.05 250.566H1226C1231.52 250.566 1236 255.043 1236 260.566V341.52C1236 347.043 1231.52 351.52 1226 351.52H1145.05Z" stroke="url(#paint18_radial_60_18)" stroke-width="9"/>
<path d="M1145.05 474.303C1139.52 474.303 1135.05 469.826 1135.05 464.303V383.348C1135.05 377.826 1139.52 373.348 1145.05 373.348H1226C1231.52 373.348 1236 377.826 1236 383.348V464.303C1236 469.826 1231.52 474.303 1226 474.303H1145.05Z" stroke="url(#paint19_radial_60_18)" stroke-width="9"/>
<path d="M643 720.738C637.477 720.738 633 716.26 633 710.738V629.783C633 624.26 637.477 619.783 643 619.783H723.955C729.478 619.783 733.955 624.26 733.955 629.783V710.738C733.955 716.26 729.478 720.738 723.955 720.738L643 720.738Z" stroke="url(#paint20_radial_60_18)" stroke-width="9"/>
<path d="M643 597.955C637.477 597.955 633 593.478 633 587.955V507C633 501.477 637.477 497 643 497H723.955C729.478 497 733.955 501.477 733.955 507V587.955C733.955 593.478 729.478 597.955 723.955 597.955H643Z" stroke="url(#paint21_radial_60_18)" stroke-width="9"/>
<path d="M643 843.52C637.477 843.52 633 839.043 633 833.52V752.566C633 747.043 637.477 742.566 643 742.566H723.955C729.478 742.566 733.955 747.043 733.955 752.566V833.52C733.955 839.043 729.478 843.52 723.955 843.52H643Z" stroke="url(#paint22_radial_60_18)" stroke-width="9"/>
<path d="M643 966.303C637.477 966.303 633 961.826 633 956.303V875.348C633 869.826 637.477 865.348 643 865.348H723.955C729.478 865.348 733.955 869.826 733.955 875.348L733.955 956.303C733.955 961.826 729.478 966.303 723.955 966.303H643Z" stroke="url(#paint23_radial_60_18)" stroke-width="9"/>
<path d="M768.511 720.738C762.989 720.738 758.511 716.26 758.511 710.738V629.783C758.511 624.26 762.989 619.783 768.511 619.783H849.466C854.989 619.783 859.466 624.26 859.466 629.783V710.738C859.466 716.26 854.989 720.738 849.466 720.738H768.511Z" stroke="url(#paint24_radial_60_18)" stroke-width="9"/>
<path d="M768.511 597.955C762.989 597.955 758.511 593.478 758.511 587.955V507C758.511 501.477 762.989 497 768.511 497H849.466C854.989 497 859.466 501.477 859.466 507V587.955C859.466 593.478 854.989 597.955 849.466 597.955H768.511Z" stroke="url(#paint25_radial_60_18)" stroke-width="9"/>
<path d="M768.511 843.52C762.989 843.52 758.511 839.043 758.511 833.52V752.566C758.511 747.043 762.989 742.566 768.511 742.566H849.466C854.989 742.566 859.466 747.043 859.466 752.566V833.52C859.466 839.043 854.989 843.52 849.466 843.52H768.511Z" stroke="url(#paint26_radial_60_18)" stroke-width="9"/>
<path d="M768.511 966.303C762.989 966.303 758.511 961.826 758.511 956.303V875.348C758.511 869.826 762.989 865.348 768.511 865.348H849.466C854.989 865.348 859.466 869.826 859.466 875.348V956.303C859.466 961.826 854.989 966.303 849.466 966.303H768.511Z" stroke="url(#paint27_radial_60_18)" stroke-width="9"/>
<path d="M894.023 720.738C888.5 720.738 884.023 716.26 884.023 710.738L884.023 629.783C884.023 624.26 888.5 619.783 894.023 619.783H974.977C980.5 619.783 984.977 624.26 984.977 629.783V710.738C984.977 716.26 980.5 720.738 974.977 720.738H894.023Z" stroke="url(#paint28_radial_60_18)" stroke-width="9"/>
<path d="M894.023 597.955C888.5 597.955 884.023 593.478 884.023 587.955V507C884.023 501.477 888.5 497 894.023 497H974.977C980.5 497 984.977 501.477 984.977 507V587.955C984.977 593.478 980.5 597.955 974.977 597.955H894.023Z" stroke="url(#paint29_radial_60_18)" stroke-width="9"/>
<path d="M894.023 843.52C888.5 843.52 884.023 839.043 884.023 833.52V752.566C884.023 747.043 888.5 742.566 894.023 742.566H974.977C980.5 742.566 984.977 747.043 984.977 752.566V833.52C984.977 839.043 980.5 843.52 974.977 843.52H894.023Z" stroke="url(#paint30_radial_60_18)" stroke-width="9"/>
<path d="M894.023 966.303C888.5 966.303 884.023 961.826 884.023 956.303V875.348C884.023 869.826 888.5 865.348 894.023 865.348H974.977C980.5 865.348 984.977 869.826 984.977 875.348V956.303C984.977 961.826 980.5 966.303 974.977 966.303H894.023Z" stroke="url(#paint31_radial_60_18)" stroke-width="9"/>
<path d="M1019.53 720.738C1014.01 720.738 1009.53 716.26 1009.53 710.738V629.783C1009.53 624.26 1014.01 619.783 1019.53 619.783H1100.49C1106.01 619.783 1110.49 624.26 1110.49 629.783V710.738C1110.49 716.26 1106.01 720.738 1100.49 720.738H1019.53Z" stroke="url(#paint32_radial_60_18)" stroke-width="9"/>
<path d="M1019.53 597.955C1014.01 597.955 1009.53 593.478 1009.53 587.955V507C1009.53 501.477 1014.01 497 1019.53 497H1100.49C1106.01 497 1110.49 501.477 1110.49 507V587.955C1110.49 593.478 1106.01 597.955 1100.49 597.955H1019.53Z" stroke="url(#paint33_radial_60_18)" stroke-width="9"/>
<path d="M1019.53 843.52C1014.01 843.52 1009.53 839.043 1009.53 833.52V752.566C1009.53 747.043 1014.01 742.566 1019.53 742.566H1100.49C1106.01 742.566 1110.49 747.043 1110.49 752.566V833.52C1110.49 839.043 1106.01 843.52 1100.49 843.52H1019.53Z" stroke="url(#paint34_radial_60_18)" stroke-width="9"/>
<path d="M1019.53 966.303C1014.01 966.303 1009.53 961.826 1009.53 956.303V875.348C1009.53 869.826 1014.01 865.348 1019.53 865.348H1100.49C1106.01 865.348 1110.49 869.826 1110.49 875.348V956.303C1110.49 961.826 1106.01 966.303 1100.49 966.303H1019.53Z" stroke="url(#paint35_radial_60_18)" stroke-width="9"/>
<path d="M1145.05 720.738C1139.52 720.738 1135.05 716.26 1135.05 710.738V629.783C1135.05 624.26 1139.52 619.783 1145.05 619.783H1226C1231.52 619.783 1236 624.26 1236 629.783V710.738C1236 716.26 1231.52 720.738 1226 720.738H1145.05Z" stroke="url(#paint36_radial_60_18)" stroke-width="9"/>
<path d="M1145.05 597.955C1139.52 597.955 1135.05 593.478 1135.05 587.955V507C1135.05 501.477 1139.52 497 1145.05 497H1226C1231.52 497 1236 501.477 1236 507V587.955C1236 593.478 1231.52 597.955 1226 597.955H1145.05Z" stroke="url(#paint37_radial_60_18)" stroke-width="9"/>
<path d="M1145.05 843.52C1139.52 843.52 1135.05 839.043 1135.05 833.52V752.566C1135.05 747.043 1139.52 742.566 1145.05 742.566H1226C1231.52 742.566 1236 747.043 1236 752.566V833.52C1236 839.043 1231.52 843.52 1226 843.52H1145.05Z" stroke="url(#paint38_radial_60_18)" stroke-width="9"/>
<path d="M1145.05 966.303C1139.52 966.303 1135.05 961.826 1135.05 956.303V875.348C1135.05 869.826 1139.52 865.348 1145.05 865.348H1226C1231.52 865.348 1236 869.826 1236 875.348V956.303C1236 961.826 1231.52 966.303 1226 966.303H1145.05Z" stroke="url(#paint39_radial_60_18)" stroke-width="9"/>
<path d="M1271 230.738C1265.48 230.738 1261 226.26 1261 220.738V139.783C1261 134.26 1265.48 129.783 1271 129.783H1351.95C1357.48 129.783 1361.95 134.26 1361.95 139.783V220.738C1361.95 226.26 1357.48 230.738 1351.95 230.738L1271 230.738Z" stroke="url(#paint40_radial_60_18)" stroke-width="9"/>
<path d="M1271 107.955C1265.48 107.955 1261 103.478 1261 97.9548V17C1261 11.4772 1265.48 7.00003 1271 7.00003L1351.95 7.00002C1357.48 7.00002 1361.95 11.4772 1361.95 17V97.9548C1361.95 103.478 1357.48 107.955 1351.95 107.955H1271Z" stroke="url(#paint41_radial_60_18)" stroke-width="9"/>
<path d="M1271 353.52C1265.48 353.52 1261 349.043 1261 343.52V262.566C1261 257.043 1265.48 252.566 1271 252.566L1351.95 252.566C1357.48 252.566 1361.95 257.043 1361.95 262.566V343.52C1361.95 349.043 1357.48 353.52 1351.95 353.52H1271Z" stroke="url(#paint42_radial_60_18)" stroke-width="9"/>
<path d="M1271 476.303C1265.48 476.303 1261 471.826 1261 466.303V385.348C1261 379.826 1265.48 375.348 1271 375.348L1351.95 375.348C1357.48 375.348 1361.95 379.826 1361.95 385.348L1361.95 466.303C1361.95 471.826 1357.48 476.303 1351.95 476.303H1271Z" stroke="url(#paint43_radial_60_18)" stroke-width="9"/>
<path d="M1396.51 230.738C1390.99 230.738 1386.51 226.26 1386.51 220.738V139.783C1386.51 134.26 1390.99 129.783 1396.51 129.783L1477.47 129.783C1482.99 129.783 1487.47 134.26 1487.47 139.783V220.738C1487.47 226.26 1482.99 230.738 1477.47 230.738H1396.51Z" stroke="url(#paint44_radial_60_18)" stroke-width="9"/>
<path d="M1396.51 107.955C1390.99 107.955 1386.51 103.478 1386.51 97.9548V17C1386.51 11.4772 1390.99 7.00002 1396.51 7.00002L1477.47 7.00002C1482.99 7.00002 1487.47 11.4772 1487.47 17V97.9548C1487.47 103.478 1482.99 107.955 1477.47 107.955L1396.51 107.955Z" stroke="url(#paint45_radial_60_18)" stroke-width="9"/>
<path d="M1396.51 353.52C1390.99 353.52 1386.51 349.043 1386.51 343.52V262.566C1386.51 257.043 1390.99 252.566 1396.51 252.566H1477.47C1482.99 252.566 1487.47 257.043 1487.47 262.566V343.52C1487.47 349.043 1482.99 353.52 1477.47 353.52H1396.51Z" stroke="url(#paint46_radial_60_18)" stroke-width="9"/>
<path d="M1396.51 476.303C1390.99 476.303 1386.51 471.826 1386.51 466.303V385.348C1386.51 379.826 1390.99 375.348 1396.51 375.348H1477.47C1482.99 375.348 1487.47 379.826 1487.47 385.348V466.303C1487.47 471.826 1482.99 476.303 1477.47 476.303H1396.51Z" stroke="url(#paint47_radial_60_18)" stroke-width="9"/>
<path d="M1522.02 230.738C1516.5 230.738 1512.02 226.26 1512.02 220.738V139.783C1512.02 134.26 1516.5 129.783 1522.02 129.783L1602.98 129.783C1608.5 129.783 1612.98 134.26 1612.98 139.783V220.738C1612.98 226.26 1608.5 230.738 1602.98 230.738H1522.02Z" stroke="url(#paint48_radial_60_18)" stroke-width="9"/>
<path d="M1522.02 107.955C1516.5 107.955 1512.02 103.478 1512.02 97.9548V17C1512.02 11.4772 1516.5 7.00001 1522.02 7.00001L1602.98 7.00001C1608.5 7.00001 1612.98 11.4772 1612.98 17V97.9548C1612.98 103.478 1608.5 107.955 1602.98 107.955L1522.02 107.955Z" stroke="url(#paint49_radial_60_18)" stroke-width="9"/>
<path d="M1522.02 353.52C1516.5 353.52 1512.02 349.043 1512.02 343.52V262.566C1512.02 257.043 1516.5 252.566 1522.02 252.566H1602.98C1608.5 252.566 1612.98 257.043 1612.98 262.566V343.52C1612.98 349.043 1608.5 353.52 1602.98 353.52H1522.02Z" stroke="url(#paint50_radial_60_18)" stroke-width="9"/>
<path d="M1522.02 476.303C1516.5 476.303 1512.02 471.826 1512.02 466.303V385.348C1512.02 379.826 1516.5 375.348 1522.02 375.348H1602.98C1608.5 375.348 1612.98 379.826 1612.98 385.348V466.303C1612.98 471.826 1608.5 476.303 1602.98 476.303H1522.02Z" stroke="url(#paint51_radial_60_18)" stroke-width="9"/>
<path d="M1647.53 230.738C1642.01 230.738 1637.53 226.26 1637.53 220.738V139.783C1637.53 134.26 1642.01 129.783 1647.53 129.783H1728.49C1734.01 129.783 1738.49 134.26 1738.49 139.783V220.738C1738.49 226.26 1734.01 230.738 1728.49 230.738L1647.53 230.738Z" stroke="url(#paint52_radial_60_18)" stroke-width="9"/>
<path d="M1647.53 107.955C1642.01 107.955 1637.53 103.478 1637.53 97.9548V17C1637.53 11.4772 1642.01 7.00001 1647.53 7.00001L1728.49 7.00001C1734.01 7.00001 1738.49 11.4772 1738.49 17V97.9548C1738.49 103.478 1734.01 107.955 1728.49 107.955H1647.53Z" stroke="url(#paint53_radial_60_18)" stroke-width="9"/>
<path d="M1647.53 353.52C1642.01 353.52 1637.53 349.043 1637.53 343.52V262.566C1637.53 257.043 1642.01 252.566 1647.53 252.566L1728.49 252.566C1734.01 252.566 1738.49 257.043 1738.49 262.566V343.52C1738.49 349.043 1734.01 353.52 1728.49 353.52H1647.53Z" stroke="url(#paint54_radial_60_18)" stroke-width="9"/>
<path d="M1647.53 476.303C1642.01 476.303 1637.53 471.826 1637.53 466.303V385.348C1637.53 379.826 1642.01 375.348 1647.53 375.348H1728.49C1734.01 375.348 1738.49 379.826 1738.49 385.348V466.303C1738.49 471.826 1734.01 476.303 1728.49 476.303H1647.53Z" stroke="url(#paint55_radial_60_18)" stroke-width="9"/>
<path d="M1773.05 230.738C1767.52 230.738 1763.05 226.26 1763.05 220.738V139.783C1763.05 134.26 1767.52 129.783 1773.05 129.783H1854C1859.52 129.783 1864 134.26 1864 139.783V220.738C1864 226.26 1859.52 230.738 1854 230.738H1773.05Z" stroke="url(#paint56_radial_60_18)" stroke-width="9"/>
<path d="M1773.05 107.955C1767.52 107.955 1763.05 103.478 1763.05 97.9548V17C1763.05 11.4772 1767.52 7 1773.05 7L1854 7C1859.52 7 1864 11.4772 1864 17V97.9547C1864 103.478 1859.52 107.955 1854 107.955H1773.05Z" stroke="url(#paint57_radial_60_18)" stroke-width="9"/>
<path d="M1773.05 353.52C1767.52 353.52 1763.05 349.043 1763.05 343.52V262.566C1763.05 257.043 1767.52 252.566 1773.05 252.566H1854C1859.52 252.566 1864 257.043 1864 262.566V343.52C1864 349.043 1859.52 353.52 1854 353.52H1773.05Z" stroke="url(#paint58_radial_60_18)" stroke-width="9"/>
<path d="M1773.05 476.303C1767.52 476.303 1763.05 471.826 1763.05 466.303V385.348C1763.05 379.826 1767.52 375.348 1773.05 375.348H1854C1859.52 375.348 1864 379.826 1864 385.348V466.303C1864 471.826 1859.52 476.303 1854 476.303H1773.05Z" stroke="url(#paint59_radial_60_18)" stroke-width="9"/>
<path d="M15 228.738C9.47715 228.738 5 224.26 5 218.738V137.783C5 132.26 9.47715 127.783 15 127.783H95.9548C101.478 127.783 105.955 132.26 105.955 137.783V218.738C105.955 224.26 101.478 228.738 95.9548 228.738L15 228.738Z" stroke="url(#paint60_radial_60_18)" stroke-width="9"/>
<path d="M15 105.955C9.47715 105.955 5 101.478 5 95.9548V15C5 9.47718 9.47715 5.00003 15 5.00003L95.9548 5.00002C101.478 5.00002 105.955 9.47717 105.955 15V95.9548C105.955 101.478 101.478 105.955 95.9548 105.955H15Z" stroke="url(#paint61_radial_60_18)" stroke-width="9"/>
<path d="M15 351.52C9.47715 351.52 5 347.043 5 341.52V260.566C5 255.043 9.47715 250.566 15 250.566L95.9548 250.566C101.478 250.566 105.955 255.043 105.955 260.566V341.52C105.955 347.043 101.478 351.52 95.9548 351.52H15Z" stroke="url(#paint62_radial_60_18)" stroke-width="9"/>
<path d="M15 474.303C9.47715 474.303 5 469.826 5 464.303V383.348C5 377.826 9.47715 373.348 15 373.348L95.9548 373.348C101.478 373.348 105.955 377.826 105.955 383.348V464.303C105.955 469.826 101.478 474.303 95.9548 474.303H15Z" stroke="url(#paint63_radial_60_18)" stroke-width="9"/>
<path d="M140.511 228.738C134.989 228.738 130.511 224.26 130.511 218.738V137.783C130.511 132.26 134.988 127.783 140.511 127.783L221.466 127.783C226.989 127.783 231.466 132.26 231.466 137.783V218.738C231.466 224.26 226.989 228.738 221.466 228.738H140.511Z" stroke="url(#paint64_radial_60_18)" stroke-width="9"/>
<path d="M140.511 105.955C134.988 105.955 130.511 101.478 130.511 95.9548V15C130.511 9.47717 134.988 5.00002 140.511 5.00002L221.466 5.00002C226.989 5.00002 231.466 9.47717 231.466 15V95.9548C231.466 101.478 226.989 105.955 221.466 105.955L140.511 105.955Z" stroke="url(#paint65_radial_60_18)" stroke-width="9"/>
<path d="M140.511 351.52C134.989 351.52 130.511 347.043 130.511 341.52V260.566C130.511 255.043 134.989 250.566 140.511 250.566H221.466C226.989 250.566 231.466 255.043 231.466 260.566V341.52C231.466 347.043 226.989 351.52 221.466 351.52H140.511Z" stroke="url(#paint66_radial_60_18)" stroke-width="9"/>
<path d="M140.511 474.303C134.989 474.303 130.511 469.826 130.511 464.303V383.348C130.511 377.826 134.989 373.348 140.511 373.348H221.466C226.989 373.348 231.466 377.826 231.466 383.348V464.303C231.466 469.826 226.989 474.303 221.466 474.303H140.511Z" stroke="url(#paint67_radial_60_18)" stroke-width="9"/>
<path d="M266.023 228.738C260.5 228.738 256.023 224.26 256.023 218.738V137.783C256.023 132.26 260.5 127.783 266.023 127.783L346.977 127.783C352.5 127.783 356.977 132.26 356.977 137.783V218.738C356.977 224.26 352.5 228.738 346.977 228.738H266.023Z" stroke="url(#paint68_radial_60_18)" stroke-width="9"/>
<path d="M266.023 105.955C260.5 105.955 256.023 101.478 256.023 95.9548V15C256.023 9.47717 260.5 5.00001 266.023 5.00001L346.977 5.00001C352.5 5.00001 356.977 9.47716 356.977 15V95.9548C356.977 101.478 352.5 105.955 346.977 105.955L266.023 105.955Z" stroke="url(#paint69_radial_60_18)" stroke-width="9"/>
<path d="M266.023 351.52C260.5 351.52 256.023 347.043 256.023 341.52V260.566C256.023 255.043 260.5 250.566 266.023 250.566H346.977C352.5 250.566 356.977 255.043 356.977 260.566V341.52C356.977 347.043 352.5 351.52 346.977 351.52H266.023Z" stroke="url(#paint70_radial_60_18)" stroke-width="9"/>
<path d="M266.023 474.303C260.5 474.303 256.023 469.826 256.023 464.303V383.348C256.023 377.826 260.5 373.348 266.023 373.348H346.977C352.5 373.348 356.977 377.826 356.977 383.348V464.303C356.977 469.826 352.5 474.303 346.977 474.303H266.023Z" stroke="url(#paint71_radial_60_18)" stroke-width="9"/>
<path d="M391.534 228.738C386.011 228.738 381.534 224.26 381.534 218.738V137.783C381.534 132.26 386.011 127.783 391.534 127.783H472.489C478.011 127.783 482.489 132.26 482.489 137.783V218.738C482.489 224.26 478.011 228.738 472.489 228.738L391.534 228.738Z" stroke="url(#paint72_radial_60_18)" stroke-width="9"/>
<path d="M391.534 105.955C386.011 105.955 381.534 101.478 381.534 95.9548V15C381.534 9.47716 386.011 5.00001 391.534 5.00001L472.489 5.00001C478.011 5.00001 482.489 9.47716 482.489 15V95.9548C482.489 101.478 478.011 105.955 472.489 105.955H391.534Z" stroke="url(#paint73_radial_60_18)" stroke-width="9"/>
<path d="M391.534 351.52C386.011 351.52 381.534 347.043 381.534 341.52V260.566C381.534 255.043 386.011 250.566 391.534 250.566L472.489 250.566C478.011 250.566 482.489 255.043 482.489 260.566V341.52C482.489 347.043 478.011 351.52 472.489 351.52H391.534Z" stroke="url(#paint74_radial_60_18)" stroke-width="9"/>
<path d="M391.534 474.303C386.011 474.303 381.534 469.826 381.534 464.303V383.348C381.534 377.826 386.011 373.348 391.534 373.348H472.489C478.012 373.348 482.489 377.826 482.489 383.348V464.303C482.489 469.826 478.012 474.303 472.489 474.303H391.534Z" stroke="url(#paint75_radial_60_18)" stroke-width="9"/>
<path d="M517.045 228.738C511.522 228.738 507.045 224.26 507.045 218.738V137.783C507.045 132.26 511.522 127.783 517.045 127.783H598C603.523 127.783 608 132.26 608 137.783V218.738C608 224.26 603.523 228.738 598 228.738H517.045Z" stroke="url(#paint76_radial_60_18)" stroke-width="9"/>
<path d="M517.045 105.955C511.522 105.955 507.045 101.478 507.045 95.9548V15C507.045 9.47716 511.522 5 517.045 5L598 5C603.523 5 608 9.47715 608 15V95.9547C608 101.478 603.523 105.955 598 105.955H517.045Z" stroke="url(#paint77_radial_60_18)" stroke-width="9"/>
<path d="M517.045 351.52C511.522 351.52 507.045 347.043 507.045 341.52V260.566C507.045 255.043 511.522 250.566 517.045 250.566H598C603.523 250.566 608 255.043 608 260.566V341.52C608 347.043 603.523 351.52 598 351.52H517.045Z" stroke="url(#paint78_radial_60_18)" stroke-width="9"/>
<path d="M517.045 474.303C511.522 474.303 507.045 469.826 507.045 464.303V383.348C507.045 377.826 511.522 373.348 517.045 373.348H598C603.523 373.348 608 377.826 608 383.348V464.303C608 469.826 603.523 474.303 598 474.303H517.045Z" stroke="url(#paint79_radial_60_18)" stroke-width="9"/>
<path d="M1271 722.738C1265.48 722.738 1261 718.26 1261 712.738V631.783C1261 626.26 1265.48 621.783 1271 621.783H1351.95C1357.48 621.783 1361.95 626.26 1361.95 631.783V712.738C1361.95 718.26 1357.48 722.738 1351.95 722.738L1271 722.738Z" stroke="url(#paint80_radial_60_18)" stroke-width="9"/>
<path d="M1271 599.955C1265.48 599.955 1261 595.478 1261 589.955V509C1261 503.477 1265.48 499 1271 499H1351.95C1357.48 499 1361.95 503.477 1361.95 509V589.955C1361.95 595.478 1357.48 599.955 1351.95 599.955H1271Z" stroke="url(#paint81_radial_60_18)" stroke-width="9"/>
<path d="M1271 845.52C1265.48 845.52 1261 841.043 1261 835.52V754.566C1261 749.043 1265.48 744.566 1271 744.566H1351.95C1357.48 744.566 1361.95 749.043 1361.95 754.566V835.52C1361.95 841.043 1357.48 845.52 1351.95 845.52H1271Z" stroke="url(#paint82_radial_60_18)" stroke-width="9"/>
<path d="M1271 968.303C1265.48 968.303 1261 963.826 1261 958.303V877.348C1261 871.826 1265.48 867.348 1271 867.348H1351.95C1357.48 867.348 1361.95 871.826 1361.95 877.348L1361.95 958.303C1361.95 963.826 1357.48 968.303 1351.95 968.303H1271Z" stroke="url(#paint83_radial_60_18)" stroke-width="9"/>
<path d="M1396.51 722.738C1390.99 722.738 1386.51 718.26 1386.51 712.738V631.783C1386.51 626.26 1390.99 621.783 1396.51 621.783H1477.47C1482.99 621.783 1487.47 626.26 1487.47 631.783V712.738C1487.47 718.26 1482.99 722.738 1477.47 722.738H1396.51Z" stroke="url(#paint84_radial_60_18)" stroke-width="9"/>
<path d="M1396.51 599.955C1390.99 599.955 1386.51 595.478 1386.51 589.955V509C1386.51 503.477 1390.99 499 1396.51 499H1477.47C1482.99 499 1487.47 503.477 1487.47 509V589.955C1487.47 595.478 1482.99 599.955 1477.47 599.955H1396.51Z" stroke="url(#paint85_radial_60_18)" stroke-width="9"/>
<path d="M1396.51 845.52C1390.99 845.52 1386.51 841.043 1386.51 835.52V754.566C1386.51 749.043 1390.99 744.566 1396.51 744.566H1477.47C1482.99 744.566 1487.47 749.043 1487.47 754.566V835.52C1487.47 841.043 1482.99 845.52 1477.47 845.52H1396.51Z" stroke="url(#paint86_radial_60_18)" stroke-width="9"/>
<path d="M1396.51 968.303C1390.99 968.303 1386.51 963.826 1386.51 958.303V877.348C1386.51 871.826 1390.99 867.348 1396.51 867.348H1477.47C1482.99 867.348 1487.47 871.826 1487.47 877.348V958.303C1487.47 963.826 1482.99 968.303 1477.47 968.303H1396.51Z" stroke="url(#paint87_radial_60_18)" stroke-width="9"/>
<path d="M1522.02 722.738C1516.5 722.738 1512.02 718.26 1512.02 712.738V631.783C1512.02 626.26 1516.5 621.783 1522.02 621.783H1602.98C1608.5 621.783 1612.98 626.26 1612.98 631.783V712.738C1612.98 718.26 1608.5 722.738 1602.98 722.738H1522.02Z" stroke="url(#paint88_radial_60_18)" stroke-width="9"/>
<path d="M1522.02 599.955C1516.5 599.955 1512.02 595.478 1512.02 589.955V509C1512.02 503.477 1516.5 499 1522.02 499H1602.98C1608.5 499 1612.98 503.477 1612.98 509V589.955C1612.98 595.478 1608.5 599.955 1602.98 599.955H1522.02Z" stroke="url(#paint89_radial_60_18)" stroke-width="9"/>
<path d="M1522.02 845.52C1516.5 845.52 1512.02 841.043 1512.02 835.52V754.566C1512.02 749.043 1516.5 744.566 1522.02 744.566H1602.98C1608.5 744.566 1612.98 749.043 1612.98 754.566V835.52C1612.98 841.043 1608.5 845.52 1602.98 845.52H1522.02Z" stroke="url(#paint90_radial_60_18)" stroke-width="9"/>
<path d="M1522.02 968.303C1516.5 968.303 1512.02 963.826 1512.02 958.303V877.348C1512.02 871.826 1516.5 867.348 1522.02 867.348H1602.98C1608.5 867.348 1612.98 871.826 1612.98 877.348V958.303C1612.98 963.826 1608.5 968.303 1602.98 968.303H1522.02Z" stroke="url(#paint91_radial_60_18)" stroke-width="9"/>
<path d="M1647.53 722.738C1642.01 722.738 1637.53 718.26 1637.53 712.738V631.783C1637.53 626.26 1642.01 621.783 1647.53 621.783H1728.49C1734.01 621.783 1738.49 626.26 1738.49 631.783V712.738C1738.49 718.26 1734.01 722.738 1728.49 722.738H1647.53Z" stroke="url(#paint92_radial_60_18)" stroke-width="9"/>
<path d="M1647.53 599.955C1642.01 599.955 1637.53 595.478 1637.53 589.955V509C1637.53 503.477 1642.01 499 1647.53 499H1728.49C1734.01 499 1738.49 503.477 1738.49 509V589.955C1738.49 595.478 1734.01 599.955 1728.49 599.955H1647.53Z" stroke="url(#paint93_radial_60_18)" stroke-width="9"/>
<path d="M1647.53 845.52C1642.01 845.52 1637.53 841.043 1637.53 835.52V754.566C1637.53 749.043 1642.01 744.566 1647.53 744.566H1728.49C1734.01 744.566 1738.49 749.043 1738.49 754.566V835.52C1738.49 841.043 1734.01 845.52 1728.49 845.52H1647.53Z" stroke="url(#paint94_radial_60_18)" stroke-width="9"/>
<path d="M1647.53 968.303C1642.01 968.303 1637.53 963.826 1637.53 958.303V877.348C1637.53 871.826 1642.01 867.348 1647.53 867.348H1728.49C1734.01 867.348 1738.49 871.826 1738.49 877.348V958.303C1738.49 963.826 1734.01 968.303 1728.49 968.303H1647.53Z" stroke="url(#paint95_radial_60_18)" stroke-width="9"/>
<path d="M1773.05 722.738C1767.52 722.738 1763.05 718.26 1763.05 712.738V631.783C1763.05 626.26 1767.52 621.783 1773.05 621.783H1854C1859.52 621.783 1864 626.26 1864 631.783V712.738C1864 718.26 1859.52 722.738 1854 722.738H1773.05Z" stroke="url(#paint96_radial_60_18)" stroke-width="9"/>
<path d="M1773.05 599.955C1767.52 599.955 1763.05 595.478 1763.05 589.955V509C1763.05 503.477 1767.52 499 1773.05 499H1854C1859.52 499 1864 503.477 1864 509V589.955C1864 595.478 1859.52 599.955 1854 599.955H1773.05Z" stroke="url(#paint97_radial_60_18)" stroke-width="9"/>
<path d="M1773.05 845.52C1767.52 845.52 1763.05 841.043 1763.05 835.52V754.566C1763.05 749.043 1767.52 744.566 1773.05 744.566H1854C1859.52 744.566 1864 749.043 1864 754.566V835.52C1864 841.043 1859.52 845.52 1854 845.52H1773.05Z" stroke="url(#paint98_radial_60_18)" stroke-width="9"/>
<path d="M1773.05 968.303C1767.52 968.303 1763.05 963.826 1763.05 958.303V877.348C1763.05 871.826 1767.52 867.348 1773.05 867.348H1854C1859.52 867.348 1864 871.826 1864 877.348V958.303C1864 963.826 1859.52 968.303 1854 968.303H1773.05Z" stroke="url(#paint99_radial_60_18)" stroke-width="9"/>
<path d="M15 720.738C9.47715 720.738 5 716.26 5 710.738V629.783C5 624.26 9.47715 619.783 15 619.783H95.9548C101.478 619.783 105.955 624.26 105.955 629.783V710.738C105.955 716.26 101.478 720.738 95.9548 720.738L15 720.738Z" stroke="url(#paint100_radial_60_18)" stroke-width="9"/>
<path d="M15 597.955C9.47715 597.955 5 593.478 5 587.955V507C5 501.477 9.47715 497 15 497H95.9548C101.478 497 105.955 501.477 105.955 507V587.955C105.955 593.478 101.478 597.955 95.9548 597.955H15Z" stroke="url(#paint101_radial_60_18)" stroke-width="9"/>
<path d="M15 843.52C9.47715 843.52 5 839.043 5 833.52V752.566C5 747.043 9.47715 742.566 15 742.566H95.9548C101.478 742.566 105.955 747.043 105.955 752.566V833.52C105.955 839.043 101.478 843.52 95.9548 843.52H15Z" stroke="url(#paint102_radial_60_18)" stroke-width="9"/>
<path d="M15 966.303C9.47715 966.303 5 961.826 5 956.303V875.348C5 869.826 9.47715 865.348 15 865.348H95.9548C101.478 865.348 105.955 869.826 105.955 875.348V956.303C105.955 961.826 101.478 966.303 95.9548 966.303H15Z" stroke="url(#paint103_radial_60_18)" stroke-width="9"/>
<path d="M140.511 720.738C134.989 720.738 130.511 716.26 130.511 710.738V629.783C130.511 624.26 134.988 619.783 140.511 619.783H221.466C226.989 619.783 231.466 624.26 231.466 629.783V710.738C231.466 716.26 226.989 720.738 221.466 720.738H140.511Z" stroke="url(#paint104_radial_60_18)" stroke-width="9"/>
<path d="M140.511 597.955C134.988 597.955 130.511 593.478 130.511 587.955V507C130.511 501.477 134.988 497 140.511 497H221.466C226.989 497 231.466 501.477 231.466 507V587.955C231.466 593.478 226.989 597.955 221.466 597.955H140.511Z" stroke="url(#paint105_radial_60_18)" stroke-width="9"/>
<path d="M140.511 843.52C134.989 843.52 130.511 839.043 130.511 833.52V752.566C130.511 747.043 134.989 742.566 140.511 742.566H221.466C226.989 742.566 231.466 747.043 231.466 752.566V833.52C231.466 839.043 226.989 843.52 221.466 843.52H140.511Z" stroke="url(#paint106_radial_60_18)" stroke-width="9"/>
<path d="M140.511 966.303C134.989 966.303 130.511 961.826 130.511 956.303V875.348C130.511 869.826 134.989 865.348 140.511 865.348H221.466C226.989 865.348 231.466 869.826 231.466 875.348V956.303C231.466 961.826 226.989 966.303 221.466 966.303H140.511Z" stroke="url(#paint107_radial_60_18)" stroke-width="9"/>
<path d="M266.023 720.738C260.5 720.738 256.023 716.26 256.023 710.738V629.783C256.023 624.26 260.5 619.783 266.023 619.783H346.977C352.5 619.783 356.977 624.26 356.977 629.783V710.738C356.977 716.26 352.5 720.738 346.977 720.738H266.023Z" stroke="url(#paint108_radial_60_18)" stroke-width="9"/>
<path d="M266.023 597.955C260.5 597.955 256.023 593.478 256.023 587.955V507C256.023 501.477 260.5 497 266.023 497H346.977C352.5 497 356.977 501.477 356.977 507V587.955C356.977 593.478 352.5 597.955 346.977 597.955H266.023Z" stroke="url(#paint109_radial_60_18)" stroke-width="9"/>
<path d="M266.023 843.52C260.5 843.52 256.023 839.043 256.023 833.52V752.566C256.023 747.043 260.5 742.566 266.023 742.566H346.977C352.5 742.566 356.977 747.043 356.977 752.566V833.52C356.977 839.043 352.5 843.52 346.977 843.52H266.023Z" stroke="url(#paint110_radial_60_18)" stroke-width="9"/>
<path d="M266.023 966.303C260.5 966.303 256.023 961.826 256.023 956.303V875.348C256.023 869.826 260.5 865.348 266.023 865.348H346.977C352.5 865.348 356.977 869.826 356.977 875.348V956.303C356.977 961.826 352.5 966.303 346.977 966.303H266.023Z" stroke="url(#paint111_radial_60_18)" stroke-width="9"/>
<path d="M391.534 720.738C386.011 720.738 381.534 716.26 381.534 710.738V629.783C381.534 624.26 386.011 619.783 391.534 619.783H472.489C478.011 619.783 482.489 624.26 482.489 629.783V710.738C482.489 716.26 478.011 720.738 472.489 720.738H391.534Z" stroke="url(#paint112_radial_60_18)" stroke-width="9"/>
<path d="M391.534 597.955C386.011 597.955 381.534 593.478 381.534 587.955V507C381.534 501.477 386.011 497 391.534 497H472.489C478.011 497 482.489 501.477 482.489 507V587.955C482.489 593.478 478.011 597.955 472.489 597.955H391.534Z" stroke="url(#paint113_radial_60_18)" stroke-width="9"/>
<path d="M391.534 843.52C386.011 843.52 381.534 839.043 381.534 833.52V752.566C381.534 747.043 386.011 742.566 391.534 742.566H472.489C478.011 742.566 482.489 747.043 482.489 752.566V833.52C482.489 839.043 478.011 843.52 472.489 843.52H391.534Z" stroke="url(#paint114_radial_60_18)" stroke-width="9"/>
<path d="M391.534 966.303C386.011 966.303 381.534 961.826 381.534 956.303V875.348C381.534 869.826 386.011 865.348 391.534 865.348H472.489C478.012 865.348 482.489 869.826 482.489 875.348V956.303C482.489 961.826 478.012 966.303 472.489 966.303H391.534Z" stroke="url(#paint115_radial_60_18)" stroke-width="9"/>
<path d="M517.045 720.738C511.522 720.738 507.045 716.26 507.045 710.738V629.783C507.045 624.26 511.522 619.783 517.045 619.783H598C603.523 619.783 608 624.26 608 629.783V710.738C608 716.26 603.523 720.738 598 720.738H517.045Z" stroke="url(#paint116_radial_60_18)" stroke-width="9"/>
<path d="M517.045 597.955C511.522 597.955 507.045 593.478 507.045 587.955V507C507.045 501.477 511.522 497 517.045 497H598C603.523 497 608 501.477 608 507V587.955C608 593.478 603.523 597.955 598 597.955H517.045Z" stroke="url(#paint117_radial_60_18)" stroke-width="9"/>
<path d="M517.045 843.52C511.522 843.52 507.045 839.043 507.045 833.52V752.566C507.045 747.043 511.522 742.566 517.045 742.566H598C603.523 742.566 608 747.043 608 752.566V833.52C608 839.043 603.523 843.52 598 843.52H517.045Z" stroke="url(#paint118_radial_60_18)" stroke-width="9"/>
<path d="M517.045 966.303C511.522 966.303 507.045 961.826 507.045 956.303V875.348C507.045 869.826 511.522 865.348 517.045 865.348H598C603.523 865.348 608 869.826 608 875.348V956.303C608 961.826 603.523 966.303 598 966.303H517.045Z" stroke="url(#paint119_radial_60_18)" stroke-width="9"/>
<defs>
<radialGradient id="paint0_radial_60_18" cx="0" cy="0" r="1" gradientUnits="userSpaceOnUse" gradientTransform="translate(934 487) rotate(90) scale(457.5 692.275)">
<stop stop-color="#3AAE3A"/>
<stop offset="1" stop-color="#3AAE3A" stop-opacity="0.28"/>
</radialGradient>
<radialGradient id="paint1_radial_60_18" cx="0" cy="0" r="1" gradientUnits="userSpaceOnUse" gradientTransform="translate(934 487) rotate(90) scale(457.5 692.275)">
<stop stop-color="#3AAE3A"/>
<stop offset="1" stop-color="#3AAE3A" stop-opacity="0.28"/>
</radialGradient>
<radialGradient id="paint2_radial_60_18" cx="0" cy="0" r="1" gradientUnits="userSpaceOnUse" gradientTransform="translate(934 487) rotate(90) scale(457.5 692.275)">
<stop stop-color="#3AAE3A"/>
<stop offset="1" stop-color="#3AAE3A" stop-opacity="0.28"/>
</radialGradient>
<radialGradient id="paint3_radial_60_18" cx="0" cy="0" r="1" gradientUnits="userSpaceOnUse" gradientTransform="translate(934 487) rotate(90) scale(457.5 692.275)">
<stop stop-color="#3AAE3A"/>
<stop offset="1" stop-color="#3AAE3A" stop-opacity="0.28"/>
</radialGradient>
<radialGradient id="paint4_radial_60_18" cx="0" cy="0" r="1" gradientUnits="userSpaceOnUse" gradientTransform="translate(934 487) rotate(90) scale(457.5 692.275)">
<stop stop-color="#3AAE3A"/>
<stop offset="1" stop-color="#3AAE3A" stop-opacity="0.28"/>
</radialGradient>
<radialGradient id="paint5_radial_60_18" cx="0" cy="0" r="1" gradientUnits="userSpaceOnUse" gradientTransform="translate(934 487) rotate(90) scale(457.5 692.275)">
<stop stop-color="#3AAE3A"/>
<stop offset="1" stop-color="#3AAE3A" stop-opacity="0.28"/>
</radialGradient>
<radialGradient id="paint6_radial_60_18" cx="0" cy="0" r="1" gradientUnits="userSpaceOnUse" gradientTransform="translate(934 487) rotate(90) scale(457.5 692.275)">
<stop stop-color="#3AAE3A"/>
<stop offset="1" stop-color="#3AAE3A" stop-opacity="0.28"/>
</radialGradient>
<radialGradient id="paint7_radial_60_18" cx="0" cy="0" r="1" gradientUnits="userSpaceOnUse" gradientTransform="translate(934 487) rotate(90) scale(457.5 692.275)">
<stop stop-color="#3AAE3A"/>
<stop offset="1" stop-color="#3AAE3A" stop-opacity="0.28"/>
</radialGradient>
<radialGradient id="paint8_radial_60_18" cx="0" cy="0" r="1" gradientUnits="userSpaceOnUse" gradientTransform="translate(934 487) rotate(90) scale(457.5 692.275)">
<stop stop-color="#3AAE3A"/>
<stop offset="1" stop-color="#3AAE3A" stop-opacity="0.28"/>
</radialGradient>
<radialGradient id="paint9_radial_60_18" cx="0" cy="0" r="1" gradientUnits="userSpaceOnUse" gradientTransform="translate(934 487) rotate(90) scale(457.5 692.275)">
<stop stop-color="#3AAE3A"/>
<stop offset="1" stop-color="#3AAE3A" stop-opacity="0.28"/>
</radialGradient>
<radialGradient id="paint10_radial_60_18" cx="0" cy="0" r="1" gradientUnits="userSpaceOnUse" gradientTransform="translate(934 487) rotate(90) scale(457.5 692.275)">
<stop stop-color="#3AAE3A"/>
<stop offset="1" stop-color="#3AAE3A" stop-opacity="0.28"/>
</radialGradient>
<radialGradient id="paint11_radial_60_18" cx="0" cy="0" r="1" gradientUnits="userSpaceOnUse" gradientTransform="translate(934 487) rotate(90) scale(457.5 692.275)">
<stop stop-color="#3AAE3A"/>
<stop offset="1" stop-color="#3AAE3A" stop-opacity="0.28"/>
</radialGradient>
<radialGradient id="paint12_radial_60_18" cx="0" cy="0" r="1" gradientUnits="userSpaceOnUse" gradientTransform="translate(934 487) rotate(90) scale(457.5 692.275)">
<stop stop-color="#3AAE3A"/>
<stop offset="1" stop-color="#3AAE3A" stop-opacity="0.28"/>
</radialGradient>
<radialGradient id="paint13_radial_60_18" cx="0" cy="0" r="1" gradientUnits="userSpaceOnUse" gradientTransform="translate(934 487) rotate(90) scale(457.5 692.275)">
<stop stop-color="#3AAE3A"/>
<stop offset="1" stop-color="#3AAE3A" stop-opacity="0.28"/>
</radialGradient>
<radialGradient id="paint14_radial_60_18" cx="0" cy="0" r="1" gradientUnits="userSpaceOnUse" gradientTransform="translate(934 487) rotate(90) scale(457.5 692.275)">
<stop stop-color="#3AAE3A"/>
<stop offset="1" stop-color="#3AAE3A" stop-opacity="0.28"/>
</radialGradient>
<radialGradient id="paint15_radial_60_18" cx="0" cy="0" r="1" gradientUnits="userSpaceOnUse" gradientTransform="translate(934 487) rotate(90) scale(457.5 692.275)">
<stop stop-color="#3AAE3A"/>
<stop offset="1" stop-color="#3AAE3A" stop-opacity="0.28"/>
</radialGradient>
<radialGradient id="paint16_radial_60_18" cx="0" cy="0" r="1" gradientUnits="userSpaceOnUse" gradientTransform="translate(934 487) rotate(90) scale(457.5 692.275)">
<stop stop-color="#3AAE3A"/>
<stop offset="1" stop-color="#3AAE3A" stop-opacity="0.28"/>
</radialGradient>
<radialGradient id="paint17_radial_60_18" cx="0" cy="0" r="1" gradientUnits="userSpaceOnUse" gradientTransform="translate(934 487) rotate(90) scale(457.5 692.275)">
<stop stop-color="#3AAE3A"/>
<stop offset="1" stop-color="#3AAE3A" stop-opacity="0.28"/>
</radialGradient>
<radialGradient id="paint18_radial_60_18" cx="0" cy="0" r="1" gradientUnits="userSpaceOnUse" gradientTransform="translate(934 487) rotate(90) scale(457.5 692.275)">
<stop stop-color="#3AAE3A"/>
<stop offset="1" stop-color="#3AAE3A" stop-opacity="0.28"/>
</radialGradient>
<radialGradient id="paint19_radial_60_18" cx="0" cy="0" r="1" gradientUnits="userSpaceOnUse" gradientTransform="translate(934 487) rotate(90) scale(457.5 692.275)">
<stop stop-color="#3AAE3A"/>
<stop offset="1" stop-color="#3AAE3A" stop-opacity="0.28"/>
</radialGradient>
<radialGradient id="paint20_radial_60_18" cx="0" cy="0" r="1" gradientUnits="userSpaceOnUse" gradientTransform="translate(934 487) rotate(90) scale(457.5 692.275)">
<stop stop-color="#3AAE3A"/>
<stop offset="1" stop-color="#3AAE3A" stop-opacity="0.28"/>
</radialGradient>
<radialGradient id="paint21_radial_60_18" cx="0" cy="0" r="1" gradientUnits="userSpaceOnUse" gradientTransform="translate(934 487) rotate(90) scale(457.5 692.275)">
<stop stop-color="#3AAE3A"/>
<stop offset="1" stop-color="#3AAE3A" stop-opacity="0.28"/>
</radialGradient>
<radialGradient id="paint22_radial_60_18" cx="0" cy="0" r="1" gradientUnits="userSpaceOnUse" gradientTransform="translate(934 487) rotate(90) scale(457.5 692.275)">
<stop stop-color="#3AAE3A"/>
<stop offset="1" stop-color="#3AAE3A" stop-opacity="0.28"/>
</radialGradient>
<radialGradient id="paint23_radial_60_18" cx="0" cy="0" r="1" gradientUnits="userSpaceOnUse" gradientTransform="translate(934 487) rotate(90) scale(457.5 692.275)">
<stop stop-color="#3AAE3A"/>
<stop offset="1" stop-color="#3AAE3A" stop-opacity="0.28"/>
</radialGradient>
<radialGradient id="paint24_radial_60_18" cx="0" cy="0" r="1" gradientUnits="userSpaceOnUse" gradientTransform="translate(934 487) rotate(90) scale(457.5 692.275)">
<stop stop-color="#3AAE3A"/>
<stop offset="1" stop-color="#3AAE3A" stop-opacity="0.28"/>
</radialGradient>
<radialGradient id="paint25_radial_60_18" cx="0" cy="0" r="1" gradientUnits="userSpaceOnUse" gradientTransform="translate(934 487) rotate(90) scale(457.5 692.275)">
<stop stop-color="#3AAE3A"/>
<stop offset="1" stop-color="#3AAE3A" stop-opacity="0.28"/>
</radialGradient>
<radialGradient id="paint26_radial_60_18" cx="0" cy="0" r="1" gradientUnits="userSpaceOnUse" gradientTransform="translate(934 487) rotate(90) scale(457.5 692.275)">
<stop stop-color="#3AAE3A"/>
<stop offset="1" stop-color="#3AAE3A" stop-opacity="0.28"/>
</radialGradient>
<radialGradient id="paint27_radial_60_18" cx="0" cy="0" r="1" gradientUnits="userSpaceOnUse" gradientTransform="translate(934 487) rotate(90) scale(457.5 692.275)">
<stop stop-color="#3AAE3A"/>
<stop offset="1" stop-color="#3AAE3A" stop-opacity="0.28"/>
</radialGradient>
<radialGradient id="paint28_radial_60_18" cx="0" cy="0" r="1" gradientUnits="userSpaceOnUse" gradientTransform="translate(934 487) rotate(90) scale(457.5 692.275)">
<stop stop-color="#3AAE3A"/>
<stop offset="1" stop-color="#3AAE3A" stop-opacity="0.28"/>
</radialGradient>
<radialGradient id="paint29_radial_60_18" cx="0" cy="0" r="1" gradientUnits="userSpaceOnUse" gradientTransform="translate(934 487) rotate(90) scale(457.5 692.275)">
<stop stop-color="#3AAE3A"/>
<stop offset="1" stop-color="#3AAE3A" stop-opacity="0.28"/>
</radialGradient>
<radialGradient id="paint30_radial_60_18" cx="0" cy="0" r="1" gradientUnits="userSpaceOnUse" gradientTransform="translate(934 487) rotate(90) scale(457.5 692.275)">
<stop stop-color="#3AAE3A"/>
<stop offset="1" stop-color="#3AAE3A" stop-opacity="0.28"/>
</radialGradient>
<radialGradient id="paint31_radial_60_18" cx="0" cy="0" r="1" gradientUnits="userSpaceOnUse" gradientTransform="translate(934 487) rotate(90) scale(457.5 692.275)">
<stop stop-color="#3AAE3A"/>
<stop offset="1" stop-color="#3AAE3A" stop-opacity="0.28"/>
</radialGradient>
<radialGradient id="paint32_radial_60_18" cx="0" cy="0" r="1" gradientUnits="userSpaceOnUse" gradientTransform="translate(934 487) rotate(90) scale(457.5 692.275)">
<stop stop-color="#3AAE3A"/>
<stop offset="1" stop-color="#3AAE3A" stop-opacity="0.28"/>
</radialGradient>
<radialGradient id="paint33_radial_60_18" cx="0" cy="0" r="1" gradientUnits="userSpaceOnUse" gradientTransform="translate(934 487) rotate(90) scale(457.5 692.275)">
<stop stop-color="#3AAE3A"/>
<stop offset="1" stop-color="#3AAE3A" stop-opacity="0.28"/>
</radialGradient>
<radialGradient id="paint34_radial_60_18" cx="0" cy="0" r="1" gradientUnits="userSpaceOnUse" gradientTransform="translate(934 487) rotate(90) scale(457.5 692.275)">
<stop stop-color="#3AAE3A"/>
<stop offset="1" stop-color="#3AAE3A" stop-opacity="0.28"/>
</radialGradient>
<radialGradient id="paint35_radial_60_18" cx="0" cy="0" r="1" gradientUnits="userSpaceOnUse" gradientTransform="translate(934 487) rotate(90) scale(457.5 692.275)">
<stop stop-color="#3AAE3A"/>
<stop offset="1" stop-color="#3AAE3A" stop-opacity="0.28"/>
</radialGradient>
<radialGradient id="paint36_radial_60_18" cx="0" cy="0" r="1" gradientUnits="userSpaceOnUse" gradientTransform="translate(934 487) rotate(90) scale(457.5 692.275)">
<stop stop-color="#3AAE3A"/>
<stop offset="1" stop-color="#3AAE3A" stop-opacity="0.28"/>
</radialGradient>
<radialGradient id="paint37_radial_60_18" cx="0" cy="0" r="1" gradientUnits="userSpaceOnUse" gradientTransform="translate(934 487) rotate(90) scale(457.5 692.275)">
<stop stop-color="#3AAE3A"/>
<stop offset="1" stop-color="#3AAE3A" stop-opacity="0.28"/>
</radialGradient>
<radialGradient id="paint38_radial_60_18" cx="0" cy="0" r="1" gradientUnits="userSpaceOnUse" gradientTransform="translate(934 487) rotate(90) scale(457.5 692.275)">
<stop stop-color="#3AAE3A"/>
<stop offset="1" stop-color="#3AAE3A" stop-opacity="0.28"/>
</radialGradient>
<radialGradient id="paint39_radial_60_18" cx="0" cy="0" r="1" gradientUnits="userSpaceOnUse" gradientTransform="translate(934 487) rotate(90) scale(457.5 692.275)">
<stop stop-color="#3AAE3A"/>
<stop offset="1" stop-color="#3AAE3A" stop-opacity="0.28"/>
</radialGradient>
<radialGradient id="paint40_radial_60_18" cx="0" cy="0" r="1" gradientUnits="userSpaceOnUse" gradientTransform="translate(934 487) rotate(90) scale(457.5 692.275)">
<stop stop-color="#3AAE3A"/>
<stop offset="1" stop-color="#3AAE3A" stop-opacity="0.28"/>
</radialGradient>
<radialGradient id="paint41_radial_60_18" cx="0" cy="0" r="1" gradientUnits="userSpaceOnUse" gradientTransform="translate(934 487) rotate(90) scale(457.5 692.275)">
<stop stop-color="#3AAE3A"/>
<stop offset="1" stop-color="#3AAE3A" stop-opacity="0.28"/>
</radialGradient>
<radialGradient id="paint42_radial_60_18" cx="0" cy="0" r="1" gradientUnits="userSpaceOnUse" gradientTransform="translate(934 487) rotate(90) scale(457.5 692.275)">
<stop stop-color="#3AAE3A"/>
<stop offset="1" stop-color="#3AAE3A" stop-opacity="0.28"/>
</radialGradient>
<radialGradient id="paint43_radial_60_18" cx="0" cy="0" r="1" gradientUnits="userSpaceOnUse" gradientTransform="translate(934 487) rotate(90) scale(457.5 692.275)">
<stop stop-color="#3AAE3A"/>
<stop offset="1" stop-color="#3AAE3A" stop-opacity="0.28"/>
</radialGradient>
<radialGradient id="paint44_radial_60_18" cx="0" cy="0" r="1" gradientUnits="userSpaceOnUse" gradientTransform="translate(934 487) rotate(90) scale(457.5 692.275)">
<stop stop-color="#3AAE3A"/>
<stop offset="1" stop-color="#3AAE3A" stop-opacity="0.28"/>
</radialGradient>
<radialGradient id="paint45_radial_60_18" cx="0" cy="0" r="1" gradientUnits="userSpaceOnUse" gradientTransform="translate(934 487) rotate(90) scale(457.5 692.275)">
<stop stop-color="#3AAE3A"/>
<stop offset="1" stop-color="#3AAE3A" stop-opacity="0.28"/>
</radialGradient>
<radialGradient id="paint46_radial_60_18" cx="0" cy="0" r="1" gradientUnits="userSpaceOnUse" gradientTransform="translate(934 487) rotate(90) scale(457.5 692.275)">
<stop stop-color="#3AAE3A"/>
<stop offset="1" stop-color="#3AAE3A" stop-opacity="0.28"/>
</radialGradient>
<radialGradient id="paint47_radial_60_18" cx="0" cy="0" r="1" gradientUnits="userSpaceOnUse" gradientTransform="translate(934 487) rotate(90) scale(457.5 692.275)">
<stop stop-color="#3AAE3A"/>
<stop offset="1" stop-color="#3AAE3A" stop-opacity="0.28"/>
</radialGradient>
<radialGradient id="paint48_radial_60_18" cx="0" cy="0" r="1" gradientUnits="userSpaceOnUse" gradientTransform="translate(934 487) rotate(90) scale(457.5 692.275)">
<stop stop-color="#3AAE3A"/>
<stop offset="1" stop-color="#3AAE3A" stop-opacity="0.28"/>
</radialGradient>
<radialGradient id="paint49_radial_60_18" cx="0" cy="0" r="1" gradientUnits="userSpaceOnUse" gradientTransform="translate(934 487) rotate(90) scale(457.5 692.275)">
<stop stop-color="#3AAE3A"/>
<stop offset="1" stop-color="#3AAE3A" stop-opacity="0.28"/>
</radialGradient>
<radialGradient id="paint50_radial_60_18" cx="0" cy="0" r="1" gradientUnits="userSpaceOnUse" gradientTransform="translate(934 487) rotate(90) scale(457.5 692.275)">
<stop stop-color="#3AAE3A"/>
<stop offset="1" stop-color="#3AAE3A" stop-opacity="0.28"/>
</radialGradient>
<radialGradient id="paint51_radial_60_18" cx="0" cy="0" r="1" gradientUnits="userSpaceOnUse" gradientTransform="translate(934 487) rotate(90) scale(457.5 692.275)">
<stop stop-color="#3AAE3A"/>
<stop offset="1" stop-color="#3AAE3A" stop-opacity="0.28"/>
</radialGradient>
<radialGradient id="paint52_radial_60_18" cx="0" cy="0" r="1" gradientUnits="userSpaceOnUse" gradientTransform="translate(934 487) rotate(90) scale(457.5 692.275)">
<stop stop-color="#3AAE3A"/>
<stop offset="1" stop-color="#3AAE3A" stop-opacity="0.28"/>
</radialGradient>
<radialGradient id="paint53_radial_60_18" cx="0" cy="0" r="1" gradientUnits="userSpaceOnUse" gradientTransform="translate(934 487) rotate(90) scale(457.5 692.275)">
<stop stop-color="#3AAE3A"/>
<stop offset="1" stop-color="#3AAE3A" stop-opacity="0.28"/>
</radialGradient>
<radialGradient id="paint54_radial_60_18" cx="0" cy="0" r="1" gradientUnits="userSpaceOnUse" gradientTransform="translate(934 487) rotate(90) scale(457.5 692.275)">
<stop stop-color="#3AAE3A"/>
<stop offset="1" stop-color="#3AAE3A" stop-opacity="0.28"/>
</radialGradient>
<radialGradient id="paint55_radial_60_18" cx="0" cy="0" r="1" gradientUnits="userSpaceOnUse" gradientTransform="translate(934 487) rotate(90) scale(457.5 692.275)">
<stop stop-color="#3AAE3A"/>
<stop offset="1" stop-color="#3AAE3A" stop-opacity="0.28"/>
</radialGradient>
<radialGradient id="paint56_radial_60_18" cx="0" cy="0" r="1" gradientUnits="userSpaceOnUse" gradientTransform="translate(934 487) rotate(90) scale(457.5 692.275)">
<stop stop-color="#3AAE3A"/>
<stop offset="1" stop-color="#3AAE3A" stop-opacity="0.28"/>
</radialGradient>
<radialGradient id="paint57_radial_60_18" cx="0" cy="0" r="1" gradientUnits="userSpaceOnUse" gradientTransform="translate(934 487) rotate(90) scale(457.5 692.275)">
<stop stop-color="#3AAE3A"/>
<stop offset="1" stop-color="#3AAE3A" stop-opacity="0.28"/>
</radialGradient>
<radialGradient id="paint58_radial_60_18" cx="0" cy="0" r="1" gradientUnits="userSpaceOnUse" gradientTransform="translate(934 487) rotate(90) scale(457.5 692.275)">
<stop stop-color="#3AAE3A"/>
<stop offset="1" stop-color="#3AAE3A" stop-opacity="0.28"/>
</radialGradient>
<radialGradient id="paint59_radial_60_18" cx="0" cy="0" r="1" gradientUnits="userSpaceOnUse" gradientTransform="translate(934 487) rotate(90) scale(457.5 692.275)">
<stop stop-color="#3AAE3A"/>
<stop offset="1" stop-color="#3AAE3A" stop-opacity="0.28"/>
</radialGradient>
<radialGradient id="paint60_radial_60_18" cx="0" cy="0" r="1" gradientUnits="userSpaceOnUse" gradientTransform="translate(934 487) rotate(90) scale(457.5 692.275)">
<stop stop-color="#3AAE3A"/>
<stop offset="1" stop-color="#3AAE3A" stop-opacity="0.28"/>
</radialGradient>
<radialGradient id="paint61_radial_60_18" cx="0" cy="0" r="1" gradientUnits="userSpaceOnUse" gradientTransform="translate(934 487) rotate(90) scale(457.5 692.275)">
<stop stop-color="#3AAE3A"/>
<stop offset="1" stop-color="#3AAE3A" stop-opacity="0.28"/>
</radialGradient>
<radialGradient id="paint62_radial_60_18" cx="0" cy="0" r="1" gradientUnits="userSpaceOnUse" gradientTransform="translate(934 487) rotate(90) scale(457.5 692.275)">
<stop stop-color="#3AAE3A"/>
<stop offset="1" stop-color="#3AAE3A" stop-opacity="0.28"/>
</radialGradient>
<radialGradient id="paint63_radial_60_18" cx="0" cy="0" r="1" gradientUnits="userSpaceOnUse" gradientTransform="translate(934 487) rotate(90) scale(457.5 692.275)">
<stop stop-color="#3AAE3A"/>
<stop offset="1" stop-color="#3AAE3A" stop-opacity="0.28"/>
</radialGradient>
<radialGradient id="paint64_radial_60_18" cx="0" cy="0" r="1" gradientUnits="userSpaceOnUse" gradientTransform="translate(934 487) rotate(90) scale(457.5 692.275)">
<stop stop-color="#3AAE3A"/>
<stop offset="1" stop-color="#3AAE3A" stop-opacity="0.28"/>
</radialGradient>
<radialGradient id="paint65_radial_60_18" cx="0" cy="0" r="1" gradientUnits="userSpaceOnUse" gradientTransform="translate(934 487) rotate(90) scale(457.5 692.275)">
<stop stop-color="#3AAE3A"/>
<stop offset="1" stop-color="#3AAE3A" stop-opacity="0.28"/>
</radialGradient>
<radialGradient id="paint66_radial_60_18" cx="0" cy="0" r="1" gradientUnits="userSpaceOnUse" gradientTransform="translate(934 487) rotate(90) scale(457.5 692.275)">
<stop stop-color="#3AAE3A"/>
<stop offset="1" stop-color="#3AAE3A" stop-opacity="0.28"/>
</radialGradient>
<radialGradient id="paint67_radial_60_18" cx="0" cy="0" r="1" gradientUnits="userSpaceOnUse" gradientTransform="translate(934 487) rotate(90) scale(457.5 692.275)">
<stop stop-color="#3AAE3A"/>
<stop offset="1" stop-color="#3AAE3A" stop-opacity="0.28"/>
</radialGradient>
<radialGradient id="paint68_radial_60_18" cx="0" cy="0" r="1" gradientUnits="userSpaceOnUse" gradientTransform="translate(934 487) rotate(90) scale(457.5 692.275)">
<stop stop-color="#3AAE3A"/>
<stop offset="1" stop-color="#3AAE3A" stop-opacity="0.28"/>
</radialGradient>
<radialGradient id="paint69_radial_60_18" cx="0" cy="0" r="1" gradientUnits="userSpaceOnUse" gradientTransform="translate(934 487) rotate(90) scale(457.5 692.275)">
<stop stop-color="#3AAE3A"/>
<stop offset="1" stop-color="#3AAE3A" stop-opacity="0.28"/>
</radialGradient>
<radialGradient id="paint70_radial_60_18" cx="0" cy="0" r="1" gradientUnits="userSpaceOnUse" gradientTransform="translate(934 487) rotate(90) scale(457.5 692.275)">
<stop stop-color="#3AAE3A"/>
<stop offset="1" stop-color="#3AAE3A" stop-opacity="0.28"/>
</radialGradient>
<radialGradient id="paint71_radial_60_18" cx="0" cy="0" r="1" gradientUnits="userSpaceOnUse" gradientTransform="translate(934 487) rotate(90) scale(457.5 692.275)">
<stop stop-color="#3AAE3A"/>
<stop offset="1" stop-color="#3AAE3A" stop-opacity="0.28"/>
</radialGradient>
<radialGradient id="paint72_radial_60_18" cx="0" cy="0" r="1" gradientUnits="userSpaceOnUse" gradientTransform="translate(934 487) rotate(90) scale(457.5 692.275)">
<stop stop-color="#3AAE3A"/>
<stop offset="1" stop-color="#3AAE3A" stop-opacity="0.28"/>
</radialGradient>
<radialGradient id="paint73_radial_60_18" cx="0" cy="0" r="1" gradientUnits="userSpaceOnUse" gradientTransform="translate(934 487) rotate(90) scale(457.5 692.275)">
<stop stop-color="#3AAE3A"/>
<stop offset="1" stop-color="#3AAE3A" stop-opacity="0.28"/>
</radialGradient>
<radialGradient id="paint74_radial_60_18" cx="0" cy="0" r="1" gradientUnits="userSpaceOnUse" gradientTransform="translate(934 487) rotate(90) scale(457.5 692.275)">
<stop stop-color="#3AAE3A"/>
<stop offset="1" stop-color="#3AAE3A" stop-opacity="0.28"/>
</radialGradient>
<radialGradient id="paint75_radial_60_18" cx="0" cy="0" r="1" gradientUnits="userSpaceOnUse" gradientTransform="translate(934 487) rotate(90) scale(457.5 692.275)">
<stop stop-color="#3AAE3A"/>
<stop offset="1" stop-color="#3AAE3A" stop-opacity="0.28"/>
</radialGradient>
<radialGradient id="paint76_radial_60_18" cx="0" cy="0" r="1" gradientUnits="userSpaceOnUse" gradientTransform="translate(934 487) rotate(90) scale(457.5 692.275)">
<stop stop-color="#3AAE3A"/>
<stop offset="1" stop-color="#3AAE3A" stop-opacity="0.28"/>
</radialGradient>
<radialGradient id="paint77_radial_60_18" cx="0" cy="0" r="1" gradientUnits="userSpaceOnUse" gradientTransform="translate(934 487) rotate(90) scale(457.5 692.275)">
<stop stop-color="#3AAE3A"/>
<stop offset="1" stop-color="#3AAE3A" stop-opacity="0.28"/>
</radialGradient>
<radialGradient id="paint78_radial_60_18" cx="0" cy="0" r="1" gradientUnits="userSpaceOnUse" gradientTransform="translate(934 487) rotate(90) scale(457.5 692.275)">
<stop stop-color="#3AAE3A"/>
<stop offset="1" stop-color="#3AAE3A" stop-opacity="0.28"/>
</radialGradient>
<radialGradient id="paint79_radial_60_18" cx="0" cy="0" r="1" gradientUnits="userSpaceOnUse" gradientTransform="translate(934 487) rotate(90) scale(457.5 692.275)">
<stop stop-color="#3AAE3A"/>
<stop offset="1" stop-color="#3AAE3A" stop-opacity="0.28"/>
</radialGradient>
<radialGradient id="paint80_radial_60_18" cx="0" cy="0" r="1" gradientUnits="userSpaceOnUse" gradientTransform="translate(934 487) rotate(90) scale(457.5 692.275)">
<stop stop-color="#3AAE3A"/>
<stop offset="1" stop-color="#3AAE3A" stop-opacity="0.28"/>
</radialGradient>
<radialGradient id="paint81_radial_60_18" cx="0" cy="0" r="1" gradientUnits="userSpaceOnUse" gradientTransform="translate(934 487) rotate(90) scale(457.5 692.275)">
<stop stop-color="#3AAE3A"/>
<stop offset="1" stop-color="#3AAE3A" stop-opacity="0.28"/>
</radialGradient>
<radialGradient id="paint82_radial_60_18" cx="0" cy="0" r="1" gradientUnits="userSpaceOnUse" gradientTransform="translate(934 487) rotate(90) scale(457.5 692.275)">
<stop stop-color="#3AAE3A"/>
<stop offset="1" stop-color="#3AAE3A" stop-opacity="0.28"/>
</radialGradient>
<radialGradient id="paint83_radial_60_18" cx="0" cy="0" r="1" gradientUnits="userSpaceOnUse" gradientTransform="translate(934 487) rotate(90) scale(457.5 692.275)">
<stop stop-color="#3AAE3A"/>
<stop offset="1" stop-color="#3AAE3A" stop-opacity="0.28"/>
</radialGradient>
<radialGradient id="paint84_radial_60_18" cx="0" cy="0" r="1" gradientUnits="userSpaceOnUse" gradientTransform="translate(934 487) rotate(90) scale(457.5 692.275)">
<stop stop-color="#3AAE3A"/>
<stop offset="1" stop-color="#3AAE3A" stop-opacity="0.28"/>
</radialGradient>
<radialGradient id="paint85_radial_60_18" cx="0" cy="0" r="1" gradientUnits="userSpaceOnUse" gradientTransform="translate(934 487) rotate(90) scale(457.5 692.275)">
<stop stop-color="#3AAE3A"/>
<stop offset="1" stop-color="#3AAE3A" stop-opacity="0.28"/>
</radialGradient>
<radialGradient id="paint86_radial_60_18" cx="0" cy="0" r="1" gradientUnits="userSpaceOnUse" gradientTransform="translate(934 487) rotate(90) scale(457.5 692.275)">
<stop stop-color="#3AAE3A"/>
<stop offset="1" stop-color="#3AAE3A" stop-opacity="0.28"/>
</radialGradient>
<radialGradient id="paint87_radial_60_18" cx="0" cy="0" r="1" gradientUnits="userSpaceOnUse" gradientTransform="translate(934 487) rotate(90) scale(457.5 692.275)">
<stop stop-color="#3AAE3A"/>
<stop offset="1" stop-color="#3AAE3A" stop-opacity="0.28"/>
</radialGradient>
<radialGradient id="paint88_radial_60_18" cx="0" cy="0" r="1" gradientUnits="userSpaceOnUse" gradientTransform="translate(934 487) rotate(90) scale(457.5 692.275)">
<stop stop-color="#3AAE3A"/>
<stop offset="1" stop-color="#3AAE3A" stop-opacity="0.28"/>
</radialGradient>
<radialGradient id="paint89_radial_60_18" cx="0" cy="0" r="1" gradientUnits="userSpaceOnUse" gradientTransform="translate(934 487) rotate(90) scale(457.5 692.275)">
<stop stop-color="#3AAE3A"/>
<stop offset="1" stop-color="#3AAE3A" stop-opacity="0.28"/>
</radialGradient>
<radialGradient id="paint90_radial_60_18" cx="0" cy="0" r="1" gradientUnits="userSpaceOnUse" gradientTransform="translate(934 487) rotate(90) scale(457.5 692.275)">
<stop stop-color="#3AAE3A"/>
<stop offset="1" stop-color="#3AAE3A" stop-opacity="0.28"/>
</radialGradient>
<radialGradient id="paint91_radial_60_18" cx="0" cy="0" r="1" gradientUnits="userSpaceOnUse" gradientTransform="translate(934 487) rotate(90) scale(457.5 692.275)">
<stop stop-color="#3AAE3A"/>
<stop offset="1" stop-color="#3AAE3A" stop-opacity="0.28"/>
</radialGradient>
<radialGradient id="paint92_radial_60_18" cx="0" cy="0" r="1" gradientUnits="userSpaceOnUse" gradientTransform="translate(934 487) rotate(90) scale(457.5 692.275)">
<stop stop-color="#3AAE3A"/>
<stop offset="1" stop-color="#3AAE3A" stop-opacity="0.28"/>
</radialGradient>
<radialGradient id="paint93_radial_60_18" cx="0" cy="0" r="1" gradientUnits="userSpaceOnUse" gradientTransform="translate(934 487) rotate(90) scale(457.5 692.275)">
<stop stop-color="#3AAE3A"/>
<stop offset="1" stop-color="#3AAE3A" stop-opacity="0.28"/>
</radialGradient>
<radialGradient id="paint94_radial_60_18" cx="0" cy="0" r="1" gradientUnits="userSpaceOnUse" gradientTransform="translate(934 487) rotate(90) scale(457.5 692.275)">
<stop stop-color="#3AAE3A"/>
<stop offset="1" stop-color="#3AAE3A" stop-opacity="0.28"/>
</radialGradient>
<radialGradient id="paint95_radial_60_18" cx="0" cy="0" r="1" gradientUnits="userSpaceOnUse" gradientTransform="translate(934 487) rotate(90) scale(457.5 692.275)">
<stop stop-color="#3AAE3A"/>
<stop offset="1" stop-color="#3AAE3A" stop-opacity="0.28"/>
</radialGradient>
<radialGradient id="paint96_radial_60_18" cx="0" cy="0" r="1" gradientUnits="userSpaceOnUse" gradientTransform="translate(934 487) rotate(90) scale(457.5 692.275)">
<stop stop-color="#3AAE3A"/>
<stop offset="1" stop-color="#3AAE3A" stop-opacity="0.28"/>
</radialGradient>
<radialGradient id="paint97_radial_60_18" cx="0" cy="0" r="1" gradientUnits="userSpaceOnUse" gradientTransform="translate(934 487) rotate(90) scale(457.5 692.275)">
<stop stop-color="#3AAE3A"/>
<stop offset="1" stop-color="#3AAE3A" stop-opacity="0.28"/>
</radialGradient>
<radialGradient id="paint98_radial_60_18" cx="0" cy="0" r="1" gradientUnits="userSpaceOnUse" gradientTransform="translate(934 487) rotate(90) scale(457.5 692.275)">
<stop stop-color="#3AAE3A"/>
<stop offset="1" stop-color="#3AAE3A" stop-opacity="0.28"/>
</radialGradient>
<radialGradient id="paint99_radial_60_18" cx="0" cy="0" r="1" gradientUnits="userSpaceOnUse" gradientTransform="translate(934 487) rotate(90) scale(457.5 692.275)">
<stop stop-color="#3AAE3A"/>
<stop offset="1" stop-color="#3AAE3A" stop-opacity="0.28"/>
</radialGradient>
<radialGradient id="paint100_radial_60_18" cx="0" cy="0" r="1" gradientUnits="userSpaceOnUse" gradientTransform="translate(934 487) rotate(90) scale(457.5 692.275)">
<stop stop-color="#3AAE3A"/>
<stop offset="1" stop-color="#3AAE3A" stop-opacity="0.28"/>
</radialGradient>
<radialGradient id="paint101_radial_60_18" cx="0" cy="0" r="1" gradientUnits="userSpaceOnUse" gradientTransform="translate(934 487) rotate(90) scale(457.5 692.275)">
<stop stop-color="#3AAE3A"/>
<stop offset="1" stop-color="#3AAE3A" stop-opacity="0.28"/>
</radialGradient>
<radialGradient id="paint102_radial_60_18" cx="0" cy="0" r="1" gradientUnits="userSpaceOnUse" gradientTransform="translate(934 487) rotate(90) scale(457.5 692.275)">
<stop stop-color="#3AAE3A"/>
<stop offset="1" stop-color="#3AAE3A" stop-opacity="0.28"/>
</radialGradient>
<radialGradient id="paint103_radial_60_18" cx="0" cy="0" r="1" gradientUnits="userSpaceOnUse" gradientTransform="translate(934 487) rotate(90) scale(457.5 692.275)">
<stop stop-color="#3AAE3A"/>
<stop offset="1" stop-color="#3AAE3A" stop-opacity="0.28"/>
</radialGradient>
<radialGradient id="paint104_radial_60_18" cx="0" cy="0" r="1" gradientUnits="userSpaceOnUse" gradientTransform="translate(934 487) rotate(90) scale(457.5 692.275)">
<stop stop-color="#3AAE3A"/>
<stop offset="1" stop-color="#3AAE3A" stop-opacity="0.28"/>
</radialGradient>
<radialGradient id="paint105_radial_60_18" cx="0" cy="0" r="1" gradientUnits="userSpaceOnUse" gradientTransform="translate(934 487) rotate(90) scale(457.5 692.275)">
<stop stop-color="#3AAE3A"/>
<stop offset="1" stop-color="#3AAE3A" stop-opacity="0.28"/>
</radialGradient>
<radialGradient id="paint106_radial_60_18" cx="0" cy="0" r="1" gradientUnits="userSpaceOnUse" gradientTransform="translate(934 487) rotate(90) scale(457.5 692.275)">
<stop stop-color="#3AAE3A"/>
<stop offset="1" stop-color="#3AAE3A" stop-opacity="0.28"/>
</radialGradient>
<radialGradient id="paint107_radial_60_18" cx="0" cy="0" r="1" gradientUnits="userSpaceOnUse" gradientTransform="translate(934 487) rotate(90) scale(457.5 692.275)">
<stop stop-color="#3AAE3A"/>
<stop offset="1" stop-color="#3AAE3A" stop-opacity="0.28"/>
</radialGradient>
<radialGradient id="paint108_radial_60_18" cx="0" cy="0" r="1" gradientUnits="userSpaceOnUse" gradientTransform="translate(934 487) rotate(90) scale(457.5 692.275)">
<stop stop-color="#3AAE3A"/>
<stop offset="1" stop-color="#3AAE3A" stop-opacity="0.28"/>
</radialGradient>
<radialGradient id="paint109_radial_60_18" cx="0" cy="0" r="1" gradientUnits="userSpaceOnUse" gradientTransform="translate(934 487) rotate(90) scale(457.5 692.275)">
<stop stop-color="#3AAE3A"/>
<stop offset="1" stop-color="#3AAE3A" stop-opacity="0.28"/>
</radialGradient>
<radialGradient id="paint110_radial_60_18" cx="0" cy="0" r="1" gradientUnits="userSpaceOnUse" gradientTransform="translate(934 487) rotate(90) scale(457.5 692.275)">
<stop stop-color="#3AAE3A"/>
<stop offset="1" stop-color="#3AAE3A" stop-opacity="0.28"/>
</radialGradient>
<radialGradient id="paint111_radial_60_18" cx="0" cy="0" r="1" gradientUnits="userSpaceOnUse" gradientTransform="translate(934 487) rotate(90) scale(457.5 692.275)">
<stop stop-color="#3AAE3A"/>
<stop offset="1" stop-color="#3AAE3A" stop-opacity="0.28"/>
</radialGradient>
<radialGradient id="paint112_radial_60_18" cx="0" cy="0" r="1" gradientUnits="userSpaceOnUse" gradientTransform="translate(934 487) rotate(90) scale(457.5 692.275)">
<stop stop-color="#3AAE3A"/>
<stop offset="1" stop-color="#3AAE3A" stop-opacity="0.28"/>
</radialGradient>
<radialGradient id="paint113_radial_60_18" cx="0" cy="0" r="1" gradientUnits="userSpaceOnUse" gradientTransform="translate(934 487) rotate(90) scale(457.5 692.275)">
<stop stop-color="#3AAE3A"/>
<stop offset="1" stop-color="#3AAE3A" stop-opacity="0.28"/>
</radialGradient>
<radialGradient id="paint114_radial_60_18" cx="0" cy="0" r="1" gradientUnits="userSpaceOnUse" gradientTransform="translate(934 487) rotate(90) scale(457.5 692.275)">
<stop stop-color="#3AAE3A"/>
<stop offset="1" stop-color="#3AAE3A" stop-opacity="0.28"/>
</radialGradient>
<radialGradient id="paint115_radial_60_18" cx="0" cy="0" r="1" gradientUnits="userSpaceOnUse" gradientTransform="translate(934 487) rotate(90) scale(457.5 692.275)">
<stop stop-color="#3AAE3A"/>
<stop offset="1" stop-color="#3AAE3A" stop-opacity="0.28"/>
</radialGradient>
<radialGradient id="paint116_radial_60_18" cx="0" cy="0" r="1" gradientUnits="userSpaceOnUse" gradientTransform="translate(934 487) rotate(90) scale(457.5 692.275)">
<stop stop-color="#3AAE3A"/>
<stop offset="1" stop-color="#3AAE3A" stop-opacity="0.28"/>
</radialGradient>
<radialGradient id="paint117_radial_60_18" cx="0" cy="0" r="1" gradientUnits="userSpaceOnUse" gradientTransform="translate(934 487) rotate(90) scale(457.5 692.275)">
<stop stop-color="#3AAE3A"/>
<stop offset="1" stop-color="#3AAE3A" stop-opacity="0.28"/>
</radialGradient>
<radialGradient id="paint118_radial_60_18" cx="0" cy="0" r="1" gradientUnits="userSpaceOnUse" gradientTransform="translate(934 487) rotate(90) scale(457.5 692.275)">
<stop stop-color="#3AAE3A"/>
<stop offset="1" stop-color="#3AAE3A" stop-opacity="0.28"/>
</radialGradient>
<radialGradient id="paint119_radial_60_18" cx="0" cy="0" r="1" gradientUnits="userSpaceOnUse" gradientTransform="translate(934 487) rotate(90) scale(457.5 692.275)">
<stop stop-color="#3AAE3A"/>
<stop offset="1" stop-color="#3AAE3A" stop-opacity="0.28"/>
</radialGradient>
</defs>
</svg>
