<svg width="288" height="312" viewBox="0 0 288 312" fill="none" xmlns="http://www.w3.org/2000/svg">
<path d="M139.716 305.37C177.31 302.71 232.279 296.683 142.054 295.067C51.8296 293.451 104.461 289.814 142.054 288.198C221.443 288.198 191.578 278.128 142.054 279.461C80.1493 281.128 70.3909 270.572 142.054 270.572C240.756 270.572 158.429 261.229 132.347 261.229C106.264 261.229 105.825 261.935 105.825 261.935" stroke="#0084FF" stroke-width="5"/>
<path d="M185.691 252.281C202.227 241.91 215.086 226.062 222.285 207.179C229.484 188.296 230.624 167.428 225.528 147.791C220.431 128.154 209.383 110.839 194.085 98.5157C178.788 86.1924 160.09 79.545 140.876 79.5983C121.662 79.6517 102.998 86.4028 87.7617 98.8109C72.5252 111.219 61.5623 128.595 56.5633 148.26C51.5642 167.925 52.8066 188.787 60.0988 207.629C67.3911 226.472 80.3216 242.264 96.9092 252.543L97.7443 251.124C81.5346 241.079 69.07 225.24 61.9439 206.827C54.8177 188.414 53.6037 168.027 58.4889 148.81C63.374 129.593 74.0872 112.613 88.9767 100.487C103.866 88.3617 122.105 81.7643 140.882 81.7122C159.658 81.6601 177.929 88.1561 192.878 100.199C207.828 112.241 218.625 129.162 223.605 148.351C228.585 167.541 227.471 187.934 220.436 206.387C213.401 224.84 200.835 240.327 184.675 250.462L185.691 252.281Z" fill="#0084FF"/>
<path d="M158.834 195.504C158.834 195.504 175.72 178.816 174.308 165.82C171.78 142.555 116.138 142.484 114.383 165.82C113.371 179.278 127.628 182.763 132.082 195.504C139.434 216.532 132.082 252.545 132.082 252.545" stroke="#0084FF" stroke-width="4"/>
<ellipse cx="137.126" cy="306.455" rx="6.87437" ry="4.70352" fill="#0084FF"/>
<rect width="4.34171" height="26.0503" transform="matrix(-1 0 0 1 145.34 0)" fill="#0084FF"/>
<rect width="4.34171" height="23.0269" transform="matrix(0.437081 0.899422 -0.824646 0.565649 284.546 69.4673)" fill="#0084FF"/>
<rect width="4.34171" height="23.0269" transform="matrix(-0.437081 0.899422 0.824646 0.565649 3.4541 69.4673)" fill="#0084FF"/>
<rect width="4.34171" height="22.9479" transform="matrix(-0.419539 0.907737 -0.837536 -0.546382 288 220.22)" fill="#0084FF"/>
<rect width="4.34171" height="22.9479" transform="matrix(0.419539 0.907737 0.837536 -0.546382 0 220.22)" fill="#0084FF"/>
</svg>
