<svg width="506" height="705" viewBox="0 0 506 705" fill="none" xmlns="http://www.w3.org/2000/svg">
<path d="M363.281 418.963C363.281 475.988 250.837 704.94 250.837 704.94C250.837 704.94 138.392 475.988 138.392 418.963C138.392 361.938 188.735 315.709 250.837 315.709C312.938 315.709 363.281 361.938 363.281 418.963Z" fill="#0084FF"/>
<path d="M462.752 326.521C462.752 442.364 368.843 536.274 253 536.274C137.157 536.274 43.2478 442.364 43.2478 326.521C43.2478 210.679 137.157 116.769 253 116.769C368.843 116.769 462.752 210.679 462.752 326.521ZM72.1435 326.521C72.1435 426.406 148.791 315.709 248.675 315.709C348.559 315.709 433.856 426.406 433.856 326.521C433.856 226.637 352.884 145.665 253 145.665C153.116 145.665 72.1435 226.637 72.1435 326.521Z" fill="#0084FF"/>
<path d="M462.752 227.051C462.752 199.506 457.327 172.231 446.786 146.783C436.245 121.334 420.794 98.2113 401.317 78.734C381.84 59.2568 358.717 43.8065 333.269 33.2655C307.82 22.7245 280.545 17.2991 253 17.2991C225.455 17.2991 198.18 22.7245 172.731 33.2655C147.283 43.8065 124.16 59.2568 104.683 78.7341C85.2055 98.2113 69.7553 121.334 59.2142 146.783C48.6732 172.231 43.2478 199.506 43.2478 227.051L462.752 227.051Z" fill="#0084FF"/>
<path d="M0 185.965H506V233.537H0V185.965Z" fill="#0084FF"/>
<path d="M216.239 0H285.436V38.9231H216.239V0Z" fill="#0084FF"/>
</svg>
