<svg width="117" height="163" viewBox="0 0 117 163" fill="none" xmlns="http://www.w3.org/2000/svg">
<path d="M83.9999 96.8748C83.9999 110.061 57.9999 163 57.9999 163C57.9999 163 31.9999 110.061 31.9999 96.8748C31.9999 83.6891 43.6405 73 57.9999 73C72.3593 73 83.9999 83.6891 83.9999 96.8748Z" fill="#22A722"/>
<path d="M107 75.5C107 102.286 85.2858 124 58.5 124C31.7141 124 9.99995 102.286 9.99995 75.5C9.99995 48.7142 31.7141 27 58.5 27C85.2858 27 107 48.7142 107 75.5ZM16.6814 75.5C16.6814 98.5958 34.4042 73 57.5 73C80.5957 73 100.319 98.5958 100.319 75.5C100.319 52.4042 81.5957 33.6814 58.5 33.6814C35.4042 33.6814 16.6814 52.4042 16.6814 75.5Z" fill="#22A722"/>
<path d="M107 52.5C107 46.1309 105.745 39.8241 103.308 33.9399C100.871 28.0556 97.2983 22.709 92.7946 18.2053C88.291 13.7017 82.9444 10.1292 77.0601 7.69184C71.1758 5.25449 64.8691 4 58.5 4C52.1308 4 45.8241 5.25449 39.9398 7.69184C34.0555 10.1292 28.7089 13.7017 24.2053 18.2053C19.7016 22.709 16.1291 28.0556 13.6918 33.9399C11.2544 39.8241 9.99995 46.1309 9.99995 52.5L107 52.5Z" fill="#22A722"/>
<path d="M0 42.9998H117V53.9998H0V42.9998Z" fill="#22A722"/>
<path d="M50 0H66V9H50V0Z" fill="#22A722"/>
</svg>
