<svg width="117" height="163" viewBox="0 0 117 163" fill="none" xmlns="http://www.w3.org/2000/svg">
<path d="M79 96.8748C79 97.8617 78.7305 99.6263 78.0465 102.233C77.3857 104.751 76.4212 107.753 75.2294 111.086C72.8473 117.748 69.6485 125.484 66.4179 132.881C63.393 139.807 60.3648 146.381 58 151.413C55.6352 146.381 52.607 139.807 49.5821 132.881C46.3515 125.484 43.1527 117.748 40.7706 111.086C39.5788 107.753 38.6143 104.751 37.9535 102.233C37.2695 99.6263 37 97.8617 37 96.8748C37 86.8434 45.9921 78 58 78C70.0079 78 79 86.8434 79 96.8748Z" stroke="#22A722" stroke-width="10"/>
<path d="M107 75.5C107 102.286 85.2858 124 58.5 124C31.7142 124 10 102.286 10 75.5C10 48.7142 31.7142 27 58.5 27C85.2858 27 107 48.7142 107 75.5ZM16.6814 75.5C16.6814 98.5958 34.4042 73 57.5 73C80.5958 73 100.319 98.5958 100.319 75.5C100.319 52.4042 81.5958 33.6814 58.5 33.6814C35.4042 33.6814 16.6814 52.4042 16.6814 75.5Z" fill="#22A722"/>
<path d="M107 52.5C107 46.1309 105.746 39.8241 103.308 33.9399C100.871 28.0556 97.2983 22.709 92.7947 18.2053C88.291 13.7017 82.9444 10.1292 77.0601 7.69184C71.1759 5.25449 64.8691 4 58.5 4C52.1309 4 45.8241 5.25449 39.9399 7.69184C34.0556 10.1292 28.709 13.7017 24.2053 18.2053C19.7017 22.709 16.1292 28.0556 13.6918 33.9399C11.2545 39.8242 10 46.1309 10 52.5L58.5 52.5H107Z" fill="#22A722"/>
<rect y="43" width="117" height="11" fill="#22A722"/>
<rect x="50" width="16" height="9" fill="#22A722"/>
</svg>
