<svg width="90" height="157" viewBox="0 0 90 157" fill="none" xmlns="http://www.w3.org/2000/svg">
<path d="M80.2815 57.2183C80.2815 59.2272 79.768 62.2771 78.7207 66.2685C77.6896 70.1982 76.2023 74.8179 74.3934 79.877C70.7768 89.9922 65.9386 101.687 61.0783 112.816C56.222 123.936 51.3631 134.445 47.7167 142.178C46.6199 144.504 45.6333 146.577 44.7899 148.34C43.9466 146.577 42.9599 144.504 41.8632 142.178C38.2168 134.445 33.3579 123.936 28.5016 112.816C23.6412 101.687 18.8031 89.9922 15.1865 79.877C13.3776 74.8179 11.8903 70.1982 10.8592 66.2685C9.81188 62.2771 9.29834 59.2272 9.29834 57.2183C9.29834 39.652 24.9015 24.9138 44.7899 24.9138C64.6784 24.9138 80.2815 39.652 80.2815 57.2183Z" stroke="#0084FF" stroke-width="7"/>
<path d="M13.1095 69.3901C13.8899 69.3578 14.6507 69.2474 15.3665 69.1018C17.0714 68.7552 18.8773 68.1318 20.6615 67.4323C22.1569 66.846 23.7535 66.1587 25.3599 65.4671C25.6761 65.331 25.9927 65.1947 26.309 65.059C28.2622 64.2209 30.2534 63.3824 32.2859 62.6314C36.3808 61.1182 40.4157 60.0493 44.2334 60.0493C48.0603 60.0493 52.1976 61.1222 56.4556 62.6442C58.567 63.3988 60.6467 64.2404 62.6945 65.0807C62.9417 65.1821 63.189 65.2837 63.4361 65.3853C65.2087 66.1139 66.9732 66.8391 68.6309 67.4548C70.5137 68.1541 72.4068 68.7692 74.1887 69.1098C75.0503 69.2744 75.9618 69.3905 76.8875 69.3992C72.3601 82.7155 59.787 92.2835 45.0001 92.2835C30.2097 92.2835 17.6343 82.7111 13.1095 69.3901Z" fill="#0084FF" stroke="#0084FF" stroke-width="7"/>
<path d="M82.1849 41.5819C82.1849 36.6822 81.2231 31.8304 79.3544 27.3036C77.4857 22.7769 74.7467 18.6638 71.2937 15.1991C67.8408 11.7345 63.7416 8.98617 59.2301 7.11112C54.7186 5.23607 49.8832 4.271 45.0001 4.271C40.1169 4.271 35.2815 5.23607 30.77 7.11112C26.2585 8.98617 22.1593 11.7345 18.7064 15.1991C15.2534 18.6638 12.5144 22.7769 10.6457 27.3036C8.777 31.8304 7.81519 36.6822 7.81519 41.5819L82.1849 41.5819Z" fill="#0084FF"/>
<path d="M0 33.2625H90V41.8339H0V33.2625Z" fill="#0084FF"/>
<path d="M38.5715 0.237305H50.6724V7.29613H38.5715V0.237305Z" fill="#0084FF"/>
</svg>
